<svg xmlns="http://www.w3.org/2000/svg" version="1.1" fill="currentColor" viewBox="16 169.93 600 131.07"><path d="M0 0 C5.28 0 10.56 0 16 0 C17.24629332 5.10428736 18.49136484 10.2088707 19.73535156 15.3137207 C20.15787512 17.04687362 20.58072057 18.77994809 21.00390625 20.51293945 C21.61545046 23.01753032 22.22579991 25.5224099 22.8359375 28.02734375 C23.02247894 28.79022202 23.20902039 29.55310028 23.4012146 30.33909607 C24.66766936 35.54521907 25.855757 40.76568973 27 46 C27.13558823 45.45320587 27.27117645 44.90641174 27.41087341 44.3430481 C28.81934406 38.66500451 30.23109492 32.98778383 31.64477539 27.31103516 C32.17231514 25.19080302 32.69901097 23.07036073 33.22485352 20.94970703 C33.97972727 17.90602188 34.7376077 14.86309919 35.49609375 11.8203125 C35.73154404 10.86818878 35.96699432 9.91606506 36.20957947 8.93508911 C36.42973221 8.05432709 36.64988495 7.17356506 36.87670898 6.26611328 C37.06990219 5.48889923 37.2630954 4.71168518 37.46214294 3.91091919 C38 2 38 2 39 0 C44.28 0 49.56 0 55 0 C55.49197876 1.99148071 55.49197876 1.99148071 55.99389648 4.02319336 C57.2073064 8.93097822 58.42532854 13.83760847 59.64477539 18.74389648 C60.17273603 20.8708608 60.69943144 22.99813958 61.22485352 25.12573242 C61.97863681 28.17709835 62.73690643 31.22731851 63.49609375 34.27734375 C63.73154404 35.23462875 63.96699432 36.19191376 64.20957947 37.1782074 C64.42973221 38.05904495 64.64988495 38.93988251 64.87670898 39.84741211 C65.06990219 40.62684677 65.2630954 41.40628143 65.46214294 42.20933533 C65.84745859 44.00539298 65.84745859 44.00539298 67 45 C67.18459023 44.17647789 67.18459023 44.17647789 67.37290955 43.33631897 C68.65004675 37.64191695 69.93227951 31.94867986 71.2175293 26.25610352 C71.69703916 24.12912197 72.17523205 22.00184309 72.65209961 19.87426758 C73.33624934 16.82294559 74.02506911 13.77271091 74.71484375 10.72265625 C75.03520851 9.28672874 75.03520851 9.28672874 75.36204529 7.8217926 C75.56217728 6.94095505 75.76230927 6.06011749 75.96850586 5.15258789 C76.23164833 3.9834359 76.23164833 3.9834359 76.50010681 2.79066467 C77 1 77 1 78 0 C80.53049402 -0.07313567 83.03304837 -0.09247527 85.5625 -0.0625 C86.62887695 -0.05573242 86.62887695 -0.05573242 87.71679688 -0.04882812 C89.47790013 -0.03700864 91.23896036 -0.01907263 93 0 C92.31413848 7.4161654 90.50485416 14.44930152 88.65625 21.65234375 C88.32344784 22.96122663 87.99097448 24.27019315 87.65881348 25.57923889 C86.96587979 28.30565433 86.26961249 31.03118892 85.57080078 33.75610352 C84.67393164 37.2540877 83.78460147 40.75393636 82.89759064 44.25443172 C82.21394903 46.94960101 81.52686622 49.6438833 80.83866882 52.33789253 C80.34894986 54.25696692 79.86177801 56.1766907 79.37463379 58.09642029 C79.07762573 59.25174759 78.78061768 60.40707489 78.47460938 61.59741211 C78.2133728 62.61919052 77.95213623 63.64096893 77.6829834 64.69371033 C77 67 77 67 76 68 C74.65732587 68.08631874 73.31025678 68.10706473 71.96484375 68.09765625 C71.15595703 68.09443359 70.34707031 68.09121094 69.51367188 68.08789062 C68.66353516 68.07951172 67.81339844 68.07113281 66.9375 68.0625 C66.08349609 68.05798828 65.22949219 68.05347656 64.34960938 68.04882812 C62.23304337 68.03700373 60.11651315 68.01906769 58 68 C56.91263969 63.9663687 55.82841627 59.93190985 54.74682617 55.89672852 C54.38012925 54.53029831 54.0126441 53.16407933 53.64428711 51.7980957 C51.24634406 42.90313368 49.00129245 33.99477774 47 25 C46.67201416 26.26706787 46.34402832 27.53413574 46.00610352 28.83959961 C44.79261817 33.52377413 43.57461845 38.20676474 42.35522461 42.8894043 C41.82729099 44.91935541 41.3005955 46.94962894 40.77514648 48.98022461 C40.02129305 51.89261406 39.26304873 54.80382912 38.50390625 57.71484375 C38.26845596 58.6283812 38.03300568 59.54191864 37.79042053 60.48313904 C37.57026779 61.32393509 37.35011505 62.16473114 37.12329102 63.03100586 C36.93009781 63.77491074 36.7369046 64.51881561 36.53785706 65.28526306 C36 67 36 67 35 68 C33.65732587 68.08631874 32.31025678 68.10706473 30.96484375 68.09765625 C30.15595703 68.09443359 29.34707031 68.09121094 28.51367188 68.08789062 C27.66353516 68.07951172 26.81339844 68.07113281 25.9375 68.0625 C25.08349609 68.05798828 24.22949219 68.05347656 23.34960938 68.04882812 C21.23304337 68.03700373 19.11651315 68.01906769 17 68 C14.78063997 59.42994146 12.56386841 50.85921885 10.35042572 42.28763008 C9.32262485 38.30779464 8.29392387 34.32819636 7.26318359 30.34912109 C6.26904604 26.51121207 5.2772497 22.67270513 4.28709412 18.83376694 C3.90835913 17.36708781 3.52877192 15.90062849 3.14833069 14.43439102 C2.61683153 12.38537906 2.08833043 10.33561618 1.56054688 8.28564453 C1.2585437 7.11760284 0.95654053 5.94956116 0.64538574 4.74612427 C0 2 0 2 0 0 Z " fill="currentColor" transform="translate(16,172)"></path><path d="M0 0 C5.28 0 10.56 0 16 0 C19.3 14.52 22.6 29.04 26 44 C27.46068587 41.07862827 28.36603013 39.03491559 29.12915039 35.98168945 C29.32597916 35.20440994 29.52280792 34.42713043 29.7256012 33.626297 C29.93087936 32.7970018 30.13615753 31.9677066 30.34765625 31.11328125 C30.56441513 30.25566696 30.78117401 29.39805267 31.00450134 28.51445007 C31.69488689 25.78154883 32.37924742 23.0471926 33.0625 20.3125 C33.74972366 17.56720339 34.43830422 14.82228308 35.13121033 12.07841492 C35.56201533 10.37209257 35.9894785 8.66492248 36.41334534 6.9568634 C37.88754627 1.11245373 37.88754627 1.11245373 39 0 C41.53049402 -0.07313567 44.03304837 -0.09247527 46.5625 -0.0625 C47.62887695 -0.05573242 47.62887695 -0.05573242 48.71679688 -0.04882812 C50.47790013 -0.03700864 52.23896036 -0.01907263 54 0 C57.17201485 9.84797476 59.78449161 19.76998034 62.25 29.8125 C62.61685219 31.29500489 62.9840379 32.77742729 63.3515625 34.25976562 C64.23820646 37.83890485 65.12038594 41.41912573 66 45 C68.63743867 34.5126289 71.22178883 24.01432028 73.75 13.5 C74.06894757 12.17576611 74.38795783 10.85154732 74.70703125 9.52734375 C75.47196503 6.35170958 76.23607295 3.1758765 77 0 C82.28 0 87.56 0 93 0 C91.61540762 8.12342172 89.82663834 16.05555002 87.77734375 24.03515625 C87.47180069 25.23563095 87.16625763 26.43610565 86.85145569 27.67295837 C86.21030566 30.18860016 85.56733082 32.70377751 84.92260742 35.21850586 C84.26187615 37.79674968 83.60277467 40.37532786 82.94702148 42.95483398 C81.99728429 46.69062464 81.04423865 50.42555309 80.08984375 54.16015625 C79.79504623 55.31838394 79.50024872 56.47661163 79.19651794 57.66993713 C78.92275833 58.73542282 78.64899872 59.80090851 78.36694336 60.89868164 C78.00626015 62.30785606 78.00626015 62.30785606 77.63829041 63.74549866 C77 66 77 66 76 68 C70.06 68 64.12 68 58 68 C55.01090714 59.65309918 52.96576217 51.10319091 50.875 42.5 C50.16808629 39.5927463 49.45654396 36.68668264 48.7421875 33.78125 C48.4313623 32.50314453 48.12053711 31.22503906 47.80029297 29.90820312 C47.29293831 27.12822066 47.29293831 27.12822066 46 26 C45.55346069 27.80186768 45.55346069 27.80186768 45.09790039 29.64013672 C43.99513358 34.08734363 42.88927543 38.53377694 41.7824707 42.97998047 C41.3034331 44.90620219 40.82523956 46.83263403 40.34790039 48.75927734 C39.66252714 51.52496836 38.9741442 54.28989508 38.28515625 57.0546875 C38.07157974 57.9193161 37.85800323 58.7839447 37.63795471 59.67477417 C37.43782272 60.47545319 37.23769073 61.2761322 37.03149414 62.10107422 C36.76835167 63.16030594 36.76835167 63.16030594 36.49989319 64.24093628 C36 66 36 66 35 68 C29.06 68 23.12 68 17 68 C13.00030476 54.32686964 9.28132476 40.60788299 5.84765625 26.78173828 C5.10952665 23.81276159 4.36363126 20.84580238 3.6171875 17.87890625 C3.1427751 15.97928001 2.66879916 14.0795447 2.1953125 12.1796875 C1.97352325 11.29860321 1.75173401 10.41751892 1.52322388 9.50973511 C1.32236176 8.69683014 1.12149963 7.88392517 0.91455078 7.04638672 C0.6485759 5.97890701 0.6485759 5.97890701 0.37722778 4.88986206 C0 3 0 3 0 0 Z " fill="currentColor" transform="translate(391,172)"></path><path d="M0 0 C7.58454244 5.09140571 11.87116823 11.69195301 14.22265625 20.44921875 C16.40848762 31.87067996 15.50708541 43.60715185 10.28515625 54.07421875 C5.49506836 60.80623417 0.00992069 65.23459982 -8.02734375 67.32421875 C-11.33144477 67.74373282 -14.57457565 67.80128229 -17.90234375 67.76171875 C-18.78422363 67.75487061 -19.66610352 67.74802246 -20.57470703 67.7409668 C-27.04621465 67.58118387 -32.43460581 66.78803381 -38.02734375 63.32421875 C-39.09984375 62.66421875 -40.17234375 62.00421875 -41.27734375 61.32421875 C-47.06664992 56.04621882 -50.68550262 47.0308162 -51.14770508 39.31494141 C-51.61266175 26.48542897 -51.64601353 15.60125893 -43.0625 5.3046875 C-32.79651866 -4.68543254 -12.60628468 -6.3364923 0 0 Z M-30.40234375 14.69921875 C-35.37957833 22.73936691 -35.99356281 31.71325829 -34.33984375 40.88671875 C-33.18926824 45.44961751 -31.56267437 49.13295924 -28.02734375 52.32421875 C-23.6088889 54.88949642 -19.38976016 55.70713201 -14.33984375 54.94921875 C-9.44535588 53.56301764 -6.55460204 50.66613135 -4.02734375 46.32421875 C-0.58211478 37.98936929 -0.61350536 27.08296624 -3.65234375 18.57421875 C-5.65503952 14.40777126 -7.71324398 12.23237827 -12.02734375 10.32421875 C-19.18781204 8.59184739 -25.04601489 9.34288989 -30.40234375 14.69921875 Z " fill="currentColor" transform="translate(165.02734375,173.67578125)"></path><path d="M0 0 C36.25462012 0 36.25462012 0 42.375 4.90234375 C42.91125 5.57394531 43.4475 6.24554688 44 6.9375 C44.556875 7.60652344 45.11375 8.27554688 45.6875 8.96484375 C48.77122473 13.74645264 48.58790822 19.49353564 48 25 C46.20728009 30.91085364 43.00670146 34.51707725 38 38 C37.34 38 36.68 38 36 38 C38.22720954 41.35546998 40.45712244 44.70913514 42.6875 48.0625 C43.62625977 49.47692383 43.62625977 49.47692383 44.58398438 50.91992188 C47.31105985 55.01767402 50.04152784 59.09206936 52.95703125 63.05859375 C55 66 55 66 55 68 C48.92204139 69.50382481 42.88651163 70.68043404 37 68 C30.4220786 61.42622348 25.78771275 52.43465161 22 44 C22 43.34 22 42.68 22 42 C20.02 42 18.04 42 16 42 C16 50.58 16 59.16 16 68 C10.72 68 5.44 68 0 68 C0 45.56 0 23.12 0 0 Z M16 12 C16 17.94 16 23.88 16 30 C23.79646328 30.18223977 23.79646328 30.18223977 30 27 C32.34549674 23.48175489 32.57991403 22.14224306 32 18 C29.91204014 15.39005018 28.21708759 13.52740462 25.125 12.1875 C22.09446547 11.92009989 19.04230872 12 16 12 Z " fill="currentColor" transform="translate(193,172)"></path><path d="M0 0 C5.28 0 10.56 0 16 0 C16.33 8.58 16.66 17.16 17 26 C18.44375 24.123125 19.8875 22.24625 21.375 20.3125 C22.1172583 19.37301514 22.1172583 19.37301514 22.87451172 18.41455078 C25.20965919 15.45040736 27.34993536 12.500412 29.2578125 9.2421875 C34.54750584 0.62375574 34.54750584 0.62375574 39.19628906 -0.55859375 C44.52515308 -1.11390623 49.70157595 -0.67528934 55 0 C53.29412942 3.97711541 50.62728543 7.15807583 47.9375 10.5 C42.83392924 16.911504 37.88202522 23.41830674 33 30 C37.6699053 38.23810759 42.63845311 46.25661824 47.73535156 54.2355957 C50.61837818 58.76021504 53.38055623 63.31750983 56 68 C49.63886484 69.40378995 43.17346127 70.63739264 37 68 C31.22181952 62.30614496 27.68782402 54.69361827 24.21069336 47.4519043 C22.98675067 44.8403916 22.98675067 44.8403916 21 42 C18.525 42.495 18.525 42.495 16 43 C16 51.25 16 59.5 16 68 C10.72 68 5.44 68 0 68 C0 45.56 0 23.12 0 0 Z " fill="currentColor" transform="translate(256,172)"></path><path d="M0 0 C13.2 0 26.4 0 40 0 C40 3.96 40 7.92 40 12 C32.08 12 24.16 12 16 12 C16 16.95 16 21.9 16 27 C23.26 27 30.52 27 38 27 C38 30.96 38 34.92 38 39 C30.74 39 23.48 39 16 39 C16 44.61 16 50.22 16 56 C23.92 56 31.84 56 40 56 C40 59.96 40 63.92 40 68 C26.8 68 13.6 68 0 68 C0 45.56 0 23.12 0 0 Z " fill="currentColor" transform="translate(576,172)"></path><path d="M0 0 C-0.54339792 4.56454251 -1.79463821 7.9728176 -4 12 C-7.27689598 11.56308054 -10.50295961 11.10564767 -13.73828125 10.41796875 C-15.16720703 10.11826172 -15.16720703 10.11826172 -16.625 9.8125 C-17.52476562 9.61269531 -18.42453125 9.41289062 -19.3515625 9.20703125 C-22.48966761 8.96172215 -24.24122509 9.52156721 -27 11 C-28.25941717 13.29558468 -28.25941717 13.29558468 -28 16 C-24.47213044 21.7060265 -19.22110955 23.68932365 -13.375 26.4296875 C-7.05248676 29.55743256 -2.84722637 33.46617564 0.4375 39.75 C1.58294858 46.36814734 1.34277777 52.70818383 -2.4375 58.4375 C-6.80382352 63.40572325 -11.56534222 65.58220591 -18.15087891 66.20263672 C-27.54174081 66.74661367 -36.15705468 66.4791916 -45 63 C-45 58.05 -45 53.1 -45 48 C-43.515 48.45375 -42.03 48.9075 -40.5 49.375 C-39.58347656 49.64570313 -38.66695312 49.91640625 -37.72265625 50.1953125 C-36.10082088 50.67464978 -34.48216417 51.1653274 -32.87109375 51.6796875 C-27.93034561 53.13695867 -22.993096 53.54350893 -18 52 C-15.79216487 49.20700379 -15.79216487 49.20700379 -15.75 46.1875 C-18.01036926 40.42355839 -24.09940408 38.44795499 -29.41796875 35.79296875 C-35.63586124 32.59305506 -40.8101584 28.37968319 -44 22 C-44.65356434 14.33936885 -44.96608823 8.1121086 -40 2 C-29.3836094 -7.40942276 -12.10295888 -5.97150394 0 0 Z " fill="currentColor" transform="translate(564,175)"></path><path d="M0 0 C5.28 0 10.56 0 16 0 C16 22.44 16 44.88 16 68 C10.72 68 5.44 68 0 68 C0 45.56 0 23.12 0 0 Z " fill="currentColor" transform="translate(492,172)"></path><path d="M0 0 C52.47 0 104.94 0 159 0 C159 1.32 159 2.64 159 4 C106.53 4 54.06 4 0 4 C0 2.68 0 1.36 0 0 Z " fill="currentColor" transform="translate(238,297)"></path><path d="M0 0 C14.19 0 28.38 0 43 0 C43 0.99 43 1.98 43 3 C38.545 3.495 38.545 3.495 34 4 C33.823479 4.72179443 33.64695801 5.44358887 33.46508789 6.18725586 C32.6678734 9.43824463 31.86526165 12.68787675 31.0625 15.9375 C30.78470703 17.07380859 30.50691406 18.21011719 30.22070312 19.38085938 C29.81948242 21.00024414 29.81948242 21.00024414 29.41015625 22.65234375 C29.16402588 23.65257568 28.91789551 24.65280762 28.66430664 25.68334961 C28 28 28 28 27 29 C25.00041636 29.04080783 22.99954746 29.04254356 21 29 C21.62364257 26.16636189 22.24887814 23.33309041 22.875 20.5 C23.13603516 19.31277344 23.13603516 19.31277344 23.40234375 18.1015625 C23.66337891 16.92207031 23.66337891 16.92207031 23.9296875 15.71875 C24.16534424 14.65043945 24.16534424 14.65043945 24.40576172 13.56054688 C25.22521767 10.02954686 26.12084703 6.5166119 27 3 C19.74 3 12.48 3 5 3 C4.67 5.64 4.34 8.28 4 11 C7.63 11.33 11.26 11.66 15 12 C15 12.99 15 13.98 15 15 C10.71 15 6.42 15 2 15 C1.855625 16.258125 1.71125 17.51625 1.5625 18.8125 C1.26251314 21.42667123 0.84186703 23.47439892 0 26 C4.29 26 8.58 26 13 26 C12.67 26.99 12.34 27.98 12 29 C5.73 29 -0.54 29 -7 29 C-6.401875 26.256875 -5.80375 23.51375 -5.1875 20.6875 C-5.00598389 19.84791748 -4.82446777 19.00833496 -4.63745117 18.14331055 C-3.28768489 12.01496453 -1.65735473 6.07696734 0 0 Z " fill="currentColor" transform="translate(281,265)"></path><path d="M0 0 C1.98 0 3.96 0 6 0 C5.71125 1.24136719 5.4225 2.48273438 5.125 3.76171875 C4.74971715 5.40358121 4.37473282 7.04551192 4 8.6875 C3.80921875 9.50412109 3.6184375 10.32074219 3.421875 11.16210938 C2.51266084 15.17239326 1.72999902 18.85717252 2 23 C4.21776622 24.30514736 4.21776622 24.30514736 7 25 C9.78521153 24.26453908 9.78521153 24.26453908 12 22 C13.28895898 19.26740696 14.16272389 16.87867611 15 14 C15.35320312 12.79988281 15.70640625 11.59976562 16.0703125 10.36328125 C17.07290744 6.91601474 18.04263579 3.46011838 19 0 C20.98 0 22.96 0 25 0 C24.43024261 2.83666445 23.84469357 5.66854855 23.25 8.5 C23.01410156 9.68722656 23.01410156 9.68722656 22.7734375 10.8984375 C21.40831276 17.30402284 19.8228739 23.62011466 14.66015625 27.97265625 C11.4489921 29.21279747 8.87762333 29.43351376 5.4375 29.4375 C3.76494141 29.46650391 3.76494141 29.46650391 2.05859375 29.49609375 C-1 29 -1 29 -3.40234375 27.41015625 C-5.6541071 24.01324186 -5.42757679 22.0414229 -5 18 C-4.31245076 14.80691597 -3.43295019 11.69166536 -2.5 8.5625 C-2.26152344 7.73556641 -2.02304687 6.90863281 -1.77734375 6.05664062 C-1.193157 4.03535448 -0.59772561 2.01732395 0 0 Z " fill="currentColor" transform="translate(326,265)"></path><path d="M0 0 C2.72265625 0.546875 2.72265625 0.546875 3.72265625 1.546875 C4.39728537 4.89503432 4.81143645 8.29010495 5.28515625 11.671875 C5.42373047 12.6103125 5.56230469 13.54875 5.70507812 14.515625 C6.42517251 19.58111653 6.88561742 24.43131123 6.72265625 29.546875 C4.74265625 29.546875 2.76265625 29.546875 0.72265625 29.546875 C0.39265625 26.576875 0.06265625 23.606875 -0.27734375 20.546875 C-4.88576863 20.53048081 -4.88576863 20.53048081 -9.27734375 21.546875 C-10.8491685 23.52946995 -11.87189897 25.54944685 -13.015625 27.80078125 C-13.43199219 28.37699219 -13.84835937 28.95320313 -14.27734375 29.546875 C-18.08984375 30.046875 -18.08984375 30.046875 -21.27734375 29.546875 C-19.37847227 26.18334496 -17.43719545 22.84729859 -15.45898438 19.52978516 C-14.62239969 18.12591309 -13.79086332 16.71902698 -12.96289062 15.31005859 C-11.56990756 12.95756293 -10.14596512 10.62632884 -8.71484375 8.296875 C-8.26842529 7.53383057 -7.82200684 6.77078613 -7.36206055 5.98461914 C-4.04175313 0.67442841 -4.04175313 0.67442841 0 0 Z M-2.27734375 8.546875 C-4.75234375 13.001875 -4.75234375 13.001875 -7.27734375 17.546875 C-4.96734375 17.546875 -2.65734375 17.546875 -0.27734375 17.546875 C-0.60734375 14.576875 -0.93734375 11.606875 -1.27734375 8.546875 C-1.60734375 8.546875 -1.93734375 8.546875 -2.27734375 8.546875 Z " fill="currentColor" transform="translate(390.27734375,264.453125)"></path><path d="M0 0 C1.98 0 3.96 0 6 0 C6.99 5.94 7.98 11.88 9 18 C10.64692548 15.37567954 12.29258518 12.75058027 13.9375 10.125 C14.40607422 9.37863281 14.87464844 8.63226563 15.35742188 7.86328125 C16.0293457 6.79013672 16.0293457 6.79013672 16.71484375 5.6953125 C17.12855225 5.03547363 17.54226074 4.37563477 17.96850586 3.69580078 C19.04572874 1.97748532 19.04572874 1.97748532 20 0 C22.31 0 24.62 0 27 0 C25.40780204 3.05003322 23.76154343 6.06668918 22.07910156 9.06787109 C21.29562707 10.47068041 20.51994565 11.87785115 19.74902344 13.28759766 C18.38064249 15.77057089 16.97519905 18.22951513 15.5625 20.6875 C15.12059326 21.50202637 14.67868652 22.31655273 14.22338867 23.15576172 C12.94102647 25.34325229 11.79500953 27.20730886 10 29 C6.15234375 29.51953125 6.15234375 29.51953125 3 29 C2.49491028 25.10480894 1.99682267 21.20875343 1.5 17.3125 C1.35691406 16.20970703 1.21382813 15.10691406 1.06640625 13.97070312 C0.93105469 12.90400391 0.79570312 11.83730469 0.65625 10.73828125 C0.53056641 9.75899658 0.40488281 8.77971191 0.27539062 7.77075195 C0.01567205 5.15767911 -0.05025329 2.62364032 0 0 Z " fill="currentColor" transform="translate(352,265)"></path><path d="M0 0 C8.58 0 17.16 0 26 0 C26 3.96 26 7.92 26 12 C17.42 12 8.84 12 0 12 C0 8.04 0 4.08 0 0 Z " fill="currentColor" transform="translate(338,208)"></path><path d="M0 0 C1.98 0 3.96 0 6 0 C4.02 8.25 2.04 16.5 0 25 C3.96 25.33 7.92 25.66 12 26 C12 26.99 12 27.98 12 29 C5.73 29 -0.54 29 -7 29 C-5.87356555 19.98852442 -5.87356555 19.98852442 -4.84375 15.87890625 C-4.62589844 15.00685547 -4.40804687 14.13480469 -4.18359375 13.23632812 C-3.95800781 12.35396484 -3.73242188 11.47160156 -3.5 10.5625 C-3.16162109 9.19834961 -3.16162109 9.19834961 -2.81640625 7.80664062 C-1.13139205 1.13139205 -1.13139205 1.13139205 0 0 Z " fill="currentColor" transform="translate(249,265)"></path><path d="M0 0 C1.98 0 3.96 0 6 0 C3.69 9.57 1.38 19.14 -1 29 C-2.98 29 -4.96 29 -7 29 C-6.35180847 22.68749842 -5.07063096 16.70591082 -3.5 10.5625 C-3.16162109 9.19834961 -3.16162109 9.19834961 -2.81640625 7.80664062 C-1.13139205 1.13139205 -1.13139205 1.13139205 0 0 Z " fill="currentColor" transform="translate(270,265)"></path></svg>