<svg xmlns="http://www.w3.org/2000/svg" width="80" height="80" viewBox="0 0 512 512" version="1.1">
	<path d="M 244.572 35.108 C 234.270 36.610, 225.566 39.990, 205.757 50.181 C 195.166 55.629, 169.175 68.671, 148 79.161 C 126.825 89.652, 106.350 100.262, 102.500 102.741 C 98.650 105.219, 92.314 110.515, 88.421 114.510 C 80.333 122.807, 76.287 129.961, 67.146 152.126 C 63.828 160.170, 57.450 174.345, 52.972 183.626 C 39.854 210.815, 36.689 219.669, 34.936 234.090 C 33.133 248.916, 34.383 255.134, 48.923 303.693 C 53.832 320.087, 60.161 341.353, 62.987 350.952 C 69.204 372.063, 72.777 380.011, 80.766 390.500 C 87.859 399.810, 109.227 422.772, 116.872 429.298 C 125.181 436.391, 139.999 442.944, 175 455.005 C 192.875 461.165, 214.692 468.707, 223.483 471.765 C 238.732 477.070, 240.017 477.345, 251.483 477.766 C 266.757 478.326, 271.965 477.132, 293.780 468.068 C 312.503 460.289, 325.170 455.766, 351.500 447.460 C 372.307 440.895, 384.933 435.254, 393.712 428.598 C 397.128 426.007, 406.868 417.051, 415.355 408.694 C 439.093 385.322, 440.888 381.884, 451.501 339.500 C 454.531 327.400, 459.697 308.275, 462.982 297 C 478.297 244.423, 477.958 237.633, 457.485 187 C 451.814 172.975, 445.278 156.325, 442.961 150 C 435.408 129.384, 429.020 119.116, 417.301 108.749 C 409.810 102.123, 401.741 97.610, 372.494 83.692 C 358.197 76.888, 335.475 65.751, 322 58.942 C 279.448 37.440, 278.154 36.880, 266.806 35.038 C 259.545 33.860, 252.991 33.881, 244.572 35.108 M 219.047 74.138 C 210.768 75.511, 197.947 80.241, 189.278 85.121 C 185 87.530, 173.316 95.658, 163.314 103.185 C 153.311 110.711, 140.261 120.109, 134.314 124.069 C 123.354 131.365, 119 134.773, 119 136.057 C 119 136.446, 121.919 138.667, 125.488 140.992 C 133.420 146.160, 142.428 155.619, 147.525 164.134 C 154.013 174.970, 162.072 186, 163.501 186 C 166.838 186, 165.990 181.912, 160.539 171.703 C 152.421 156.501, 151.537 153.052, 151.517 136.500 C 151.499 121.671, 152.188 117, 154.394 117 C 156.004 117, 156.995 121.304, 157.013 128.375 C 157.033 136.248, 160.455 151.073, 163.936 158.367 C 167.515 165.865, 172.814 172, 175.712 172 C 176.799 172, 180.171 169.828, 183.204 167.174 C 186.237 164.519, 192.720 160.281, 197.610 157.755 C 208.111 152.331, 209.897 150.603, 213.894 142 C 216.686 135.990, 217.919 130.764, 222.558 105.279 C 224.226 96.115, 225.873 92.186, 227.598 93.251 C 228.713 93.940, 227.489 125.675, 225.960 135.732 C 225.355 139.710, 225.143 143.423, 225.489 143.982 C 225.835 144.542, 227.486 145, 229.158 145 C 236.708 145, 240.238 135.849, 244.976 104 C 246.653 92.725, 248.290 81.891, 248.615 79.924 C 249.606 73.921, 247.746 72.979, 235.179 73.117 C 229.305 73.181, 222.046 73.641, 219.047 74.138 M 310 80 C 304.742 82.206, 294.187 82.562, 282.444 80.929 C 277.643 80.261, 274.389 80.211, 273.803 80.797 C 273.218 81.382, 273.480 84.705, 274.498 89.618 C 275.789 95.848, 276.065 102.051, 275.816 119.214 C 275.533 138.645, 275.680 141.108, 277.213 142.642 C 278.831 144.260, 278.961 144.248, 279.545 142.428 C 281.544 136.192, 285.762 127.132, 288.989 122.138 C 293.990 114.401, 303.777 104.086, 310.531 99.435 C 315.550 95.978, 316.201 95.772, 317.625 97.197 C 319.050 98.621, 318.721 99.287, 314.044 104.451 C 303.224 116.399, 294.171 131.018, 290.966 141.718 C 289.302 147.272, 289.775 147.778, 302.904 154.502 C 308.732 157.486, 316.496 162.420, 320.159 165.464 C 327.265 171.372, 329.944 172.115, 334.901 169.551 C 344.734 164.467, 351.912 147.492, 351.980 129.167 C 352.004 122.815, 353.769 122.547, 355.862 128.577 C 357.387 132.969, 357.902 148.258, 356.743 154.722 L 355.985 158.943 362.243 154.599 C 365.684 152.210, 374.238 147.202, 381.250 143.470 C 394.701 136.311, 396.183 134.624, 391.750 131.516 C 390.512 130.649, 385.078 127.032, 379.673 123.480 C 374.268 119.927, 363.243 111.920, 355.173 105.686 C 335.493 90.483, 316.791 77.685, 314.800 78.056 C 314.635 78.087, 312.475 78.961, 310 80 M 258.174 80.291 C 256.537 82.263, 255.234 89.170, 252.931 108.095 C 251.774 117.604, 250.281 128.336, 249.613 131.942 C 248.079 140.236, 248.400 141.595, 252.208 142.923 C 259.414 145.435, 267.513 143.555, 268.774 139.079 C 269.173 137.660, 269.465 129.075, 269.423 120 C 269.314 96.807, 265.732 79, 261.173 79 C 260.113 79, 258.763 79.581, 258.174 80.291 M 111.506 146.991 C 111.169 147.536, 114.266 151.773, 118.388 156.407 C 126.793 165.853, 137.994 180.663, 145.500 192.253 C 149.281 198.092, 151.049 199.977, 152.750 199.987 C 154.864 199.999, 155.435 199.105, 155.092 196.324 C 154.884 194.643, 139.442 167.548, 134.960 161 C 127.903 150.691, 121.447 146, 114.316 146 C 113.107 146, 111.842 146.446, 111.506 146.991 M 384.821 150.839 C 373.998 156.276, 365.007 163.255, 353.225 175.365 C 342.194 186.703, 341.394 188.473, 344.740 194.137 C 346.915 197.820, 350.225 198.738, 353.527 196.574 C 354.908 195.669, 364.243 187.127, 374.269 177.592 C 384.296 168.057, 393.973 159.025, 395.773 157.520 C 399.851 154.111, 401.292 151.495, 400.488 148.962 C 399.464 145.735, 393.576 146.440, 384.821 150.839 M 98.237 154.426 C 97.187 155.761, 95.607 158.798, 94.725 161.176 C 93.844 163.554, 91.472 170, 89.454 175.500 C 87.436 181, 81.145 195.175, 75.474 207 C 64.226 230.452, 62.373 236.577, 63.423 246.823 C 63.783 250.338, 67.937 266.553, 72.653 282.857 C 86.072 329.243, 86 328.935, 86 339.971 C 86 351.679, 86.165 352.053, 102.618 377.694 C 110.259 389.601, 115.603 396.698, 120.951 402.041 C 129.526 410.607, 128.735 410.220, 164.500 423.346 C 177.150 427.988, 193.986 434.333, 201.913 437.445 C 228.902 448.040, 243.562 451.188, 256.220 449.105 C 260.423 448.413, 270.263 445.214, 279.500 441.537 C 298.911 433.809, 305.989 431.654, 335.174 424.589 C 347.645 421.570, 361.366 417.920, 365.665 416.477 C 384.744 410.072, 394.767 399.703, 410.108 370.500 C 417.408 356.605, 420.534 347.084, 427.020 319 C 429.879 306.625, 434.697 288.400, 437.728 278.500 C 442.276 263.642, 443.324 258.822, 443.730 250.887 C 444.307 239.608, 443.628 236.783, 434.937 214.278 C 431.704 205.907, 426.549 190.660, 423.483 180.397 C 417.597 160.702, 414.953 154.303, 412.275 153.275 C 410.399 152.555, 408.756 154.283, 390.184 176.500 C 383.288 184.750, 373.226 196.293, 367.823 202.151 C 359.447 211.233, 356.255 216, 358.550 216 C 359.656 216, 365.583 212.618, 376.909 205.525 C 395.234 194.048, 406.646 189, 414.265 189 C 419.077 189, 417.005 191.154, 407.051 196.500 C 401.930 199.250, 396.336 202.824, 394.620 204.443 L 391.500 207.386 398.410 208.682 C 406.224 210.149, 410.275 212.329, 409.800 214.813 C 409.530 216.225, 407.687 216.605, 398.489 217.146 C 383.209 218.044, 371.757 222.343, 364.606 229.866 L 361.711 232.911 362.845 240.205 C 364.988 253.997, 365.233 260.634, 364.053 272.873 C 362.320 290.839, 362.565 290.999, 393.500 292.047 C 414.114 292.745, 420.568 293.780, 419.753 296.256 C 419.527 296.944, 416.027 298.022, 411.922 298.669 C 407.840 299.312, 401.125 300.367, 397 301.013 C 387.923 302.434, 369.172 306.852, 366.750 308.140 C 365.787 308.652, 365 309.464, 365 309.944 C 365 310.425, 368.938 312.942, 373.750 315.537 C 378.563 318.132, 385.612 322.261, 389.415 324.714 C 400.456 331.834, 411.249 343, 407.091 343 C 406.591 343, 401.303 340.032, 395.341 336.404 C 383.429 329.156, 365.590 319.958, 359.799 318.078 C 357.165 317.223, 355.533 317.179, 354.138 317.926 C 351.294 319.448, 347.748 325.629, 348.449 327.841 C 348.776 328.870, 355.221 334.143, 362.772 339.559 C 377.847 350.372, 393.747 362.745, 395.836 365.287 C 396.571 366.181, 396.882 367.382, 396.527 367.956 C 394.814 370.729, 386.643 367.767, 375.386 360.293 C 372.488 358.369, 369.557 356.981, 368.872 357.209 C 367.998 357.501, 367.607 360.577, 367.557 367.562 C 367.497 375.882, 367.103 378.281, 365.131 382.296 C 363.836 384.934, 362.304 386.935, 361.727 386.742 C 361.149 386.550, 359.880 383.042, 358.907 378.946 C 355.767 365.739, 350.975 357.024, 341.993 348.183 C 335.278 341.572, 333.388 341.531, 326.484 347.840 C 323.572 350.502, 318.645 354.369, 315.537 356.432 C 310.067 360.063, 296.074 367, 294.221 367 C 293.720 367, 292.511 367.882, 291.536 368.961 C 287.508 373.411, 293.853 389.143, 305.592 403.815 C 309.116 408.220, 312 412.089, 312 412.412 C 312 412.735, 310.937 413, 309.638 413 C 303.958 413, 291.174 398.925, 284.433 385.250 C 281.925 380.163, 279.507 376, 279.059 376 C 278.611 376, 277.689 376.670, 277.009 377.489 C 275.219 379.646, 276.247 383.736, 283.076 401.617 C 286.380 410.269, 288.801 418.053, 288.457 418.922 C 287.382 421.636, 281.259 413.600, 271.245 396.330 C 266.155 387.552, 261.396 379.556, 260.669 378.562 C 259.086 376.397, 255.451 377.166, 254.759 379.813 C 254.508 380.774, 255.160 388.071, 256.207 396.030 C 257.559 406.297, 257.988 414.276, 257.685 423.500 C 257.303 435.159, 255.862 443.195, 254.414 441.747 C 254.122 441.455, 253.271 437.455, 252.523 432.858 C 251.775 428.261, 250.035 417.975, 248.656 410 C 247.278 402.025, 245.869 393.399, 245.526 390.832 C 244.733 384.899, 242.757 383.005, 239.981 385.517 C 238.892 386.503, 238 387.735, 238 388.255 C 238 388.775, 235.345 394.751, 232.100 401.534 C 227.447 411.262, 224.955 415.148, 220.301 419.933 C 214.753 425.639, 210.997 427.585, 211.003 424.750 C 211.004 424.063, 212.643 420.800, 214.644 417.500 C 222.572 404.429, 227.504 387.689, 225.163 381.802 C 224.572 380.319, 222.966 378.369, 221.594 377.469 C 217.355 374.692, 215.424 376.267, 211.989 385.300 C 208.200 395.268, 202.957 403.246, 198.304 406.121 C 195.149 408.071, 194.694 408.122, 193.262 406.691 C 191.831 405.259, 192.071 404.530, 195.925 398.615 C 201.406 390.202, 205.160 379.373, 205.351 371.421 C 205.526 364.132, 204.496 362.600, 196.322 357.986 C 193.353 356.311, 188.192 352.929, 184.852 350.470 C 181.513 348.012, 177.964 346, 176.967 346 C 173.705 346, 169.106 351.006, 165.310 358.688 C 161.977 365.430, 161.539 367.229, 161.170 375.660 C 160.943 380.853, 161.301 387.855, 161.968 391.243 C 163.063 396.810, 163.010 397.519, 161.409 398.690 C 158.876 400.542, 156.368 397.980, 154.476 391.606 C 150.879 379.494, 151.504 369.081, 156.591 356.366 C 158 352.842, 159.006 349.542, 158.827 349.032 C 158.647 348.521, 154 351.026, 148.500 354.598 C 143 358.170, 134 363.363, 128.500 366.138 C 119.925 370.465, 117.888 371.116, 114.201 370.709 C 111.836 370.448, 109.586 369.912, 109.201 369.517 C 107.871 368.157, 115.830 362.479, 128.645 355.646 C 152.717 342.812, 164.842 333.490, 163.648 328.734 C 162.810 325.396, 159.181 321, 157.262 321 C 156.386 321, 146.549 325.269, 135.401 330.486 C 115.477 339.811, 106.741 343.075, 105.372 341.705 C 104.115 340.448, 107.761 337.534, 119.395 330.499 C 125.714 326.677, 130.756 323.422, 130.599 323.266 C 130.442 323.109, 124.731 324.749, 117.907 326.911 C 101.060 332.246, 98.440 332.890, 97.053 332.033 C 93.843 330.049, 112.132 319.944, 132.500 312.449 C 143.393 308.440, 145.385 307.167, 144.474 304.794 C 143.938 303.397, 143.383 303.387, 139.188 304.693 C 125.912 308.828, 99 302.288, 99 294.927 C 99 292.591, 98.367 292.577, 105.451 295.067 C 116.364 298.903, 132.996 299.328, 140.250 295.957 C 142.604 294.863, 143 294.080, 143 290.523 C 143 288.237, 142.506 283.697, 141.902 280.434 C 141.298 277.170, 140.511 269.822, 140.152 264.104 C 139.538 254.320, 139.341 253.589, 136.796 251.693 C 134.384 249.895, 132.661 249.690, 120.796 249.785 C 112.611 249.851, 102.890 250.665, 95.507 251.903 C 83.054 253.991, 80.484 253.656, 82.613 250.222 C 84.253 247.576, 95.600 242.218, 104.500 239.887 C 110.824 238.232, 115.489 237.794, 126.768 237.796 C 143.028 237.801, 143.065 237.782, 143.348 229.132 L 143.500 224.500 121 224.500 C 101.745 224.500, 98.500 224.285, 98.500 223.012 C 98.500 222.124, 101.001 220.509, 104.693 219.012 C 108.098 217.630, 111.133 216.241, 111.435 215.924 C 111.737 215.608, 108.299 211.663, 103.794 207.158 C 96.386 199.749, 95.752 198.819, 97.159 197.413 C 98.565 196.006, 99.541 196.398, 107.385 201.511 C 117.942 208.392, 125.618 211.612, 134.894 213.051 C 144.898 214.604, 145.666 213.904, 142.121 206.469 C 139.056 200.043, 125.963 179.867, 117.481 168.500 C 110.951 159.749, 103.488 152, 101.589 152 C 100.795 152, 99.286 153.092, 98.237 154.426 M 243.349 156.055 C 204.786 161.082, 172.857 186.369, 160.573 221.613 C 156.187 234.198, 154.718 243.514, 154.675 259 C 154.630 275.393, 156.355 284.469, 162.335 299.299 C 172.933 325.581, 196.710 347.513, 225 357.100 C 233.465 359.969, 236.025 360.367, 248.500 360.755 C 259.833 361.108, 264.332 360.812, 272.119 359.202 C 310.188 351.331, 337.703 325.341, 348.028 287.500 C 351.090 276.279, 351.799 255.851, 349.572 243.039 C 347.554 231.433, 343.345 218.630, 338.149 208.297 C 324.737 181.625, 297.663 161.788, 267.492 156.527 C 258.101 154.889, 253.053 154.790, 243.349 156.055 M 235.373 185.979 C 214.131 191.548, 193.894 208.254, 183.633 228.691 C 178.564 238.785, 176.580 248.258, 176.551 262.500 C 176.520 278.043, 177.957 284.332, 184.663 298 C 188.660 306.148, 190.688 308.857, 198.912 317.035 C 214.459 332.495, 226.957 337.904, 249.050 338.734 C 265.604 339.356, 274.512 337.486, 288.997 330.348 C 296.897 326.455, 299.930 324.223, 307.026 317.084 C 321.321 302.700, 328.108 286.131, 328.157 265.500 C 328.233 233.141, 312.534 205.865, 285.842 191.979 C 270.635 184.067, 251.390 181.779, 235.373 185.979 M 247.317 223.017 C 229.775 226.606, 216.524 242.768, 216.587 260.500 C 216.662 281.734, 232.684 298, 253.527 298 C 274.660 298, 290.453 281.896, 290.302 260.500 C 290.240 251.651, 288.644 246.237, 283.934 238.898 C 276.606 227.478, 260.230 220.376, 247.317 223.017" stroke="none" fill="black" fill-rule="evenodd"/>
</svg>