<svg  xmlns="http://www.w3.org/2000/svg" width="32" height="32" viewBox="0 0 32 32" >
<g fill="currentColor">
<path fill="currentColor" d="M4785 9689 c-225 -18 -442 -100 -620 -234 -76 -58 -3478 -2827 -3711
-3021 -222 -185 -363 -412 -427 -688 -27 -120 -29 -383 -4 -496 108 -476 434
-815 898 -935 139 -36 339 -44 484 -21 173 29 348 98 483 192 34 24 718 578
1520 1230 801 653 1462 1191 1468 1195 7 6 566 -444 1507 -1211 840 -683 1533
-1241 1579 -1270 297 -182 699 -223 1030 -104 380 137 665 448 767 836 105
402 -5 828 -293 1135 -59 64 -3775 3101 -3899 3187 -157 109 -370 188 -548
201 -41 3 -90 7 -109 9 -19 1 -75 0 -125 -5z"/>
<path fill="currentColor" d="M4770 5440 c-209 -21 -440 -108 -591 -223 -183 -138 -3787 -3085
-3841 -3141 -154 -158 -261 -361 -315 -598 -23 -103 -23 -375 0 -478 108 -476
434 -815 898 -935 139 -36 339 -44 484 -21 173 29 348 98 483 192 35 24 719
578 1520 1231 801 652 1462 1190 1468 1194 7 6 567 -445 1507 -1211 840 -683
1533 -1241 1579 -1270 297 -182 699 -223 1030 -104 381 137 665 447 767 836
105 402 -5 828 -293 1135 -59 64 -3775 3101 -3899 3187 -222 155 -529 234
-797 206z"/>
</g>
</svg>
