<svg xmlns="http://www.w3.org/2000/svg" width="32" height="32" viewBox="0 0 32 32">

<g transform="translate(0.000000,3275.000000) scale(0.100000,-0.100000)"
fill="currentColor" stroke="none">
<path d="M15730 32621 c-191 -6 -196 -7 -255 -36 -54 -27 -70 -30 -165 -31
-58 -1 -190 -7 -295 -13 -104 -6 -224 -13 -265 -15 -111 -5 -378 -34 -430 -46
-25 -6 -92 -17 -150 -25 -58 -7 -125 -20 -150 -29 -25 -8 -117 -20 -205 -26
-212 -15 -268 -24 -355 -60 -40 -16 -82 -30 -94 -30 -12 0 -62 -9 -112 -20
-49 -11 -114 -20 -144 -20 -64 0 -120 -13 -170 -39 -43 -23 -66 -28 -210 -51
-63 -10 -140 -25 -170 -34 -30 -9 -73 -16 -96 -16 -50 0 -138 -25 -158 -46
-22 -21 -59 -32 -151 -43 -81 -10 -226 -53 -300 -89 -22 -10 -67 -24 -100 -30
-33 -6 -91 -16 -130 -23 -38 -6 -90 -24 -115 -39 -59 -35 -191 -80 -255 -87
-51 -6 -135 -39 -135 -53 0 -10 -40 -24 -110 -40 -93 -20 -151 -40 -247 -86
-65 -31 -106 -44 -135 -44 -60 0 -116 -17 -165 -51 -23 -16 -44 -29 -48 -29
-3 0 -22 -11 -43 -24 -20 -13 -60 -29 -87 -35 -67 -13 -95 -25 -124 -50 -13
-11 -40 -23 -60 -26 -20 -4 -65 -19 -101 -34 -36 -16 -81 -34 -100 -42 -19 -7
-37 -16 -40 -19 -17 -21 -87 -50 -119 -50 -28 0 -57 -13 -117 -51 -43 -29 -81
-55 -84 -59 -8 -11 -70 -30 -98 -30 -27 0 -102 -39 -102 -52 0 -5 -30 -23 -67
-39 -38 -16 -76 -34 -85 -39 -10 -6 -29 -10 -42 -10 -14 0 -34 -12 -48 -27
-27 -33 -59 -49 -109 -58 -20 -3 -54 -19 -74 -35 -21 -17 -41 -30 -45 -30 -4
0 -24 -13 -45 -30 -20 -16 -54 -32 -74 -36 -52 -8 -90 -24 -104 -44 -20 -27
-88 -69 -142 -86 -28 -9 -68 -33 -90 -54 -22 -21 -57 -43 -78 -50 -49 -15
-117 -54 -150 -84 -14 -13 -57 -36 -96 -51 -39 -15 -71 -31 -71 -36 0 -12 -64
-50 -130 -78 -30 -13 -71 -40 -91 -60 -20 -21 -52 -44 -70 -51 -40 -16 -139
-81 -158 -103 -7 -9 -26 -19 -43 -22 -17 -4 -54 -30 -84 -60 -38 -37 -72 -59
-116 -76 -35 -12 -74 -35 -88 -50 -14 -14 -44 -36 -68 -48 -23 -12 -67 -46
-98 -76 -30 -30 -64 -55 -74 -55 -10 0 -50 -27 -90 -60 -39 -33 -89 -65 -111
-72 -24 -7 -49 -23 -61 -40 -11 -16 -38 -40 -60 -54 -22 -14 -65 -50 -95 -80
-30 -30 -61 -54 -67 -54 -7 0 -44 -27 -84 -60 -39 -33 -76 -60 -82 -60 -6 0
-29 -17 -50 -37 -22 -21 -65 -56 -96 -78 -31 -22 -76 -58 -100 -80 -47 -43
-86 -78 -155 -139 -91 -80 -193 -173 -239 -218 -26 -27 -60 -53 -77 -58 -16
-6 -46 -30 -66 -54 -19 -24 -53 -52 -74 -63 -21 -11 -61 -42 -90 -69 -28 -27
-88 -83 -133 -124 -46 -41 -94 -86 -107 -100 -14 -14 -145 -145 -292 -292
-146 -146 -272 -272 -279 -280 -31 -34 -152 -177 -152 -181 0 -3 -32 -38 -70
-78 -39 -41 -70 -79 -70 -85 0 -7 -11 -19 -25 -28 -13 -9 -43 -42 -66 -74 -41
-55 -75 -95 -200 -232 -32 -36 -87 -98 -121 -139 -35 -41 -87 -101 -115 -134
-29 -33 -53 -65 -53 -72 0 -7 -7 -18 -16 -25 -21 -19 -100 -123 -118 -158 -8
-16 -30 -44 -48 -63 -18 -19 -47 -52 -63 -73 -17 -22 -49 -59 -73 -82 -23 -24
-42 -49 -42 -57 0 -18 -78 -139 -100 -154 -9 -6 -22 -30 -30 -53 -8 -23 -26
-50 -42 -61 -16 -12 -51 -53 -77 -92 -27 -40 -58 -77 -69 -84 -11 -7 -26 -29
-32 -50 -12 -38 -53 -99 -99 -151 -13 -15 -32 -45 -42 -68 -10 -22 -32 -56
-49 -75 -16 -19 -33 -43 -36 -53 -4 -11 -19 -37 -35 -59 -16 -22 -29 -44 -29
-49 0 -5 -12 -21 -26 -36 -14 -15 -35 -46 -45 -69 -11 -23 -23 -45 -28 -48 -5
-2 -19 -24 -31 -47 -12 -24 -33 -53 -45 -66 -13 -13 -27 -42 -30 -64 -5 -27
-20 -55 -45 -82 -35 -39 -46 -56 -92 -151 -11 -22 -33 -53 -48 -70 -15 -16
-33 -47 -40 -68 -14 -44 -82 -170 -103 -192 -9 -8 -23 -38 -32 -67 -9 -29 -29
-71 -44 -93 -34 -48 -101 -183 -101 -200 0 -7 -15 -31 -33 -53 -19 -22 -40
-62 -47 -89 -8 -26 -26 -68 -42 -92 -15 -25 -28 -50 -28 -56 0 -6 -11 -22 -25
-35 -13 -13 -33 -52 -45 -91 -12 -37 -29 -78 -39 -91 -33 -42 -90 -163 -97
-206 -4 -26 -20 -59 -40 -85 -19 -23 -34 -48 -34 -56 0 -7 -13 -39 -28 -70
-16 -31 -35 -74 -42 -96 -7 -22 -25 -54 -41 -72 -19 -22 -33 -56 -45 -110 -9
-43 -25 -95 -35 -115 -11 -21 -19 -43 -19 -51 0 -8 -11 -35 -25 -61 -14 -26
-35 -82 -46 -124 -11 -41 -31 -88 -44 -104 -13 -15 -28 -51 -34 -80 -6 -29
-23 -77 -36 -106 -14 -30 -25 -64 -25 -77 0 -36 -28 -106 -53 -131 -14 -13
-28 -47 -36 -86 -21 -102 -72 -272 -86 -288 -23 -26 -44 -93 -54 -173 -7 -50
-22 -98 -41 -137 -16 -33 -30 -65 -30 -72 0 -6 -8 -30 -19 -52 -30 -66 -41
-106 -41 -155 0 -60 -26 -167 -49 -205 -10 -17 -22 -53 -25 -81 -4 -27 -20
-93 -36 -145 -15 -52 -31 -123 -34 -157 -4 -41 -18 -88 -40 -135 -30 -63 -35
-87 -41 -178 -7 -111 -9 -120 -48 -270 -14 -52 -30 -124 -37 -160 -7 -36 -16
-69 -20 -75 -11 -15 -28 -117 -40 -240 -13 -120 -40 -274 -70 -400 -19 -77
-60 -498 -60 -615 0 -76 -17 -165 -43 -220 -17 -36 -21 -68 -23 -162 -2 -65
-6 -122 -9 -128 -4 -6 -9 -167 -11 -358 -3 -197 -10 -366 -16 -392 -13 -55
-11 -1035 2 -1095 5 -22 12 -182 14 -355 8 -435 18 -582 44 -645 33 -76 41
-130 42 -250 0 -60 5 -141 10 -180 6 -38 14 -156 19 -260 5 -105 14 -203 20
-218 6 -15 18 -79 26 -142 8 -62 21 -133 29 -157 8 -23 19 -97 25 -163 8 -81
18 -134 32 -162 11 -23 26 -82 34 -130 7 -48 24 -124 36 -168 12 -44 23 -96
25 -115 15 -139 30 -210 54 -264 15 -35 32 -100 40 -151 7 -49 25 -133 40
-185 16 -52 31 -113 35 -135 4 -22 17 -62 29 -90 13 -27 29 -86 36 -130 7 -44
21 -96 31 -115 22 -45 39 -97 39 -124 0 -12 13 -48 28 -81 16 -33 34 -94 41
-135 8 -41 26 -101 42 -132 16 -32 29 -65 29 -74 0 -8 13 -48 29 -87 15 -40
31 -96 35 -126 8 -60 28 -114 49 -136 8 -8 24 -51 37 -97 12 -46 27 -92 34
-103 7 -11 18 -40 25 -65 7 -25 24 -70 38 -100 14 -30 34 -82 43 -115 19 -63
85 -221 100 -240 5 -6 18 -44 29 -84 11 -41 32 -91 45 -110 14 -20 33 -56 42
-81 10 -25 26 -58 36 -75 10 -16 18 -36 18 -43 0 -7 17 -48 37 -90 20 -42 44
-104 53 -137 16 -61 31 -91 87 -177 18 -28 40 -77 49 -111 8 -34 26 -73 38
-87 12 -15 30 -49 41 -76 10 -27 26 -60 35 -74 9 -14 23 -41 30 -60 7 -19 23
-46 36 -60 23 -26 104 -186 104 -206 0 -7 13 -26 30 -44 16 -17 34 -49 40 -71
6 -22 23 -54 39 -72 27 -32 86 -138 114 -207 8 -20 22 -43 31 -52 9 -9 39 -61
67 -115 29 -54 65 -114 80 -133 16 -19 29 -44 29 -56 0 -11 11 -36 25 -55 13
-19 32 -45 42 -59 10 -14 28 -36 40 -50 13 -14 28 -41 34 -60 6 -19 26 -51 43
-70 18 -19 40 -51 50 -70 38 -75 54 -100 88 -134 21 -21 38 -50 42 -71 4 -19
20 -50 36 -68 41 -46 96 -121 113 -154 8 -15 25 -37 36 -47 12 -11 39 -52 61
-91 21 -39 51 -82 66 -95 14 -14 35 -44 45 -67 10 -23 44 -69 75 -103 32 -33
64 -74 70 -90 7 -16 38 -58 68 -95 31 -36 56 -70 56 -75 0 -6 17 -29 39 -53
21 -23 45 -55 54 -72 8 -16 39 -55 68 -86 30 -31 88 -97 129 -148 41 -50 94
-114 117 -142 24 -27 43 -56 43 -63 0 -8 27 -41 59 -74 33 -34 65 -71 71 -83
11 -20 68 -83 180 -200 25 -26 90 -96 145 -155 54 -60 137 -146 182 -191 46
-44 83 -84 83 -87 0 -17 332 -354 499 -506 57 -52 139 -129 182 -170 43 -41
119 -113 170 -160 51 -47 112 -103 135 -125 138 -130 322 -289 379 -327 22
-14 54 -40 71 -56 17 -16 44 -37 62 -46 17 -9 43 -32 58 -51 14 -19 32 -35 38
-35 7 0 45 -31 85 -70 40 -38 80 -70 87 -70 8 0 33 -17 57 -38 23 -21 68 -54
101 -72 32 -19 65 -45 74 -58 8 -13 33 -33 56 -44 23 -11 73 -49 111 -83 39
-34 80 -66 93 -70 13 -4 47 -26 77 -50 29 -24 81 -58 114 -74 33 -17 65 -40
71 -51 6 -11 30 -30 53 -41 41 -21 125 -86 158 -121 9 -10 28 -18 43 -18 17 0
42 -14 69 -39 24 -22 74 -56 112 -77 39 -20 86 -51 105 -69 19 -18 52 -38 73
-45 32 -10 114 -66 155 -107 7 -7 29 -17 49 -22 19 -6 77 -37 127 -70 50 -33
105 -63 121 -67 17 -4 46 -21 65 -38 19 -17 55 -39 80 -49 83 -34 134 -62 173
-94 21 -18 56 -37 77 -43 21 -6 57 -25 79 -43 62 -49 107 -75 160 -91 27 -8
70 -30 97 -49 27 -19 63 -37 79 -41 49 -12 133 -56 162 -87 17 -17 47 -32 78
-39 51 -12 100 -34 215 -97 36 -20 87 -41 113 -48 26 -8 69 -27 96 -44 26 -17
53 -31 60 -31 6 0 44 -15 84 -34 40 -19 87 -37 104 -41 18 -3 36 -11 39 -17
10 -16 111 -58 139 -58 13 0 78 -27 144 -60 66 -33 141 -65 168 -71 26 -6 80
-26 118 -44 39 -19 84 -37 100 -41 62 -14 211 -67 235 -84 38 -25 77 -39 163
-55 43 -8 90 -21 105 -28 15 -8 61 -24 102 -37 41 -13 91 -33 110 -46 21 -14
63 -27 105 -33 80 -12 119 -22 161 -43 16 -8 56 -21 89 -28 33 -7 65 -17 70
-21 15 -11 156 -49 183 -49 13 0 45 -11 71 -23 26 -13 64 -27 86 -31 22 -4 85
-19 140 -33 55 -14 142 -33 193 -44 51 -10 119 -30 150 -44 38 -18 94 -31 167
-41 105 -13 134 -19 215 -43 19 -5 79 -15 132 -21 54 -5 116 -17 138 -25 22
-8 57 -21 78 -29 20 -7 96 -17 167 -21 82 -5 148 -14 180 -25 111 -40 310 -70
712 -109 105 -11 196 -22 201 -25 22 -13 137 -23 166 -14 23 7 43 5 76 -7 87
-32 117 -35 405 -44 160 -5 315 -15 345 -21 70 -15 1760 -8 1830 8 25 6 117
16 205 22 143 11 165 15 205 38 42 25 54 27 160 27 63 0 165 6 225 13 61 6
160 16 220 22 106 9 195 18 390 41 80 10 152 31 208 61 17 8 153 21 332 31 42
3 105 16 160 34 139 47 297 81 440 94 125 12 143 17 232 63 18 9 60 21 95 27
35 5 86 16 113 24 28 8 88 22 134 30 46 8 104 26 130 40 45 24 136 45 193 45
15 0 47 9 71 20 23 11 69 26 102 34 33 7 83 25 110 38 34 17 84 29 152 38 81
10 112 18 147 40 48 31 189 82 276 100 84 18 87 19 121 51 17 16 41 29 53 29
26 0 238 54 257 66 8 4 30 20 49 35 34 26 105 49 151 49 12 0 43 13 68 29 25
16 64 34 86 41 22 7 50 20 63 28 12 8 54 20 94 28 54 10 79 21 102 43 17 16
51 36 76 44 113 39 186 70 212 92 28 24 113 55 151 55 10 0 37 13 60 29 39 26
87 55 133 79 11 5 41 15 68 21 26 6 67 24 90 40 22 15 86 47 141 71 55 23 109
53 120 65 22 25 76 55 99 55 17 0 103 49 152 85 17 13 59 35 93 49 35 14 71
34 80 44 22 26 84 57 154 77 40 11 63 25 77 46 12 16 33 32 48 36 62 15 155
68 185 105 23 29 40 40 69 45 21 3 55 19 76 34 65 50 106 76 145 90 22 7 56
29 77 47 21 18 56 39 76 48 42 18 107 66 142 106 13 16 32 28 41 28 23 0 132
71 151 99 8 11 37 28 65 37 30 10 62 29 80 49 30 33 56 51 148 100 26 14 50
32 53 40 3 7 20 21 37 30 18 8 59 38 92 66 33 27 77 58 99 68 21 11 55 35 75
55 45 46 120 106 131 106 5 0 19 10 32 23 13 12 56 45 96 72 40 27 82 59 92
72 10 13 33 29 52 37 18 8 51 31 73 53 53 50 157 141 275 242 52 44 113 98
135 119 22 21 66 58 98 82 32 24 62 51 68 61 5 10 25 26 44 35 19 9 87 68 151
130 64 63 128 121 143 130 16 9 36 30 45 45 10 16 21 29 26 29 6 0 66 57 135
127 69 71 129 133 135 138 34 33 428 432 484 490 36 39 83 92 104 118 20 27
69 82 107 123 39 41 81 94 95 117 22 37 138 174 219 258 15 15 46 51 71 80 25
29 72 81 105 116 33 36 71 83 83 106 13 23 33 51 43 63 10 11 19 25 19 30 0 6
12 21 26 35 14 13 32 38 39 56 8 18 30 48 49 68 20 19 54 60 76 90 22 30 49
59 60 65 12 6 32 34 46 63 13 29 45 79 70 112 25 33 54 78 64 100 10 22 36 57
57 77 22 20 52 61 68 90 16 29 41 64 57 77 15 13 28 30 28 38 0 25 31 76 82
134 26 32 57 77 68 102 11 24 27 50 36 58 26 22 70 91 89 142 11 28 30 57 48
69 16 11 36 37 44 57 9 20 19 38 23 41 4 3 19 28 33 55 14 28 36 63 50 79 14
16 28 43 31 60 4 16 18 42 31 56 14 15 46 67 71 116 25 49 60 104 78 121 20
20 38 52 46 80 17 63 51 129 93 185 19 24 40 62 47 84 13 40 70 155 81 164 12
10 47 85 54 119 4 18 22 50 39 70 18 20 38 56 45 81 7 25 21 56 31 70 9 14 22
40 28 57 6 18 24 50 40 70 17 21 33 54 37 73 7 34 72 166 109 223 10 15 23 49
27 74 6 29 20 59 37 78 16 16 36 57 46 90 10 33 23 65 28 72 5 6 18 40 28 74
10 33 31 79 46 100 16 23 31 63 36 95 8 53 62 181 98 234 9 14 22 48 29 75 26
108 33 129 51 154 11 14 29 62 40 106 12 44 25 84 29 90 5 5 16 41 26 79 9 38
32 98 51 133 19 36 34 77 34 92 0 15 9 54 21 87 11 32 29 94 38 136 10 43 25
86 33 95 27 32 36 58 53 154 9 51 20 98 25 104 5 6 21 46 35 90 15 44 32 89
39 100 7 11 18 49 24 85 6 36 17 94 23 130 6 36 14 70 18 75 12 18 41 110 50
161 5 27 21 99 35 159 14 61 26 126 26 146 0 45 22 109 50 147 17 23 23 52 31
163 9 126 19 182 55 304 9 28 20 88 25 134 5 45 19 104 31 130 17 36 23 77 29
196 5 83 16 179 24 215 8 36 19 94 25 130 6 36 19 99 28 140 18 85 23 149 46
520 21 348 34 466 57 512 16 31 19 59 18 166 0 71 5 148 11 173 13 51 7 1380
-8 1664 -7 141 -13 183 -34 245 -23 69 -26 98 -37 365 -7 160 -16 313 -21 340
-5 28 -9 87 -9 133 -1 46 -10 125 -21 175 -64 302 -78 395 -79 537 -1 73 -17
145 -42 192 -6 12 -15 56 -20 98 -4 42 -19 112 -34 156 -21 61 -30 115 -40
241 -12 156 -14 165 -45 213 -27 42 -34 68 -47 157 -8 60 -21 131 -30 158 -8
28 -21 80 -28 116 -7 36 -22 86 -33 110 -26 58 -42 127 -42 186 0 26 -12 80
-26 118 -14 39 -32 90 -41 115 -8 25 -24 57 -34 71 -12 17 -23 65 -33 138 -11
91 -19 120 -42 154 -30 46 -85 226 -110 364 -2 12 -15 34 -27 50 -14 17 -33
65 -46 118 -13 50 -31 108 -40 130 -10 22 -21 52 -25 67 -3 14 -16 39 -29 55
-29 34 -35 51 -53 131 -7 35 -22 78 -33 95 -20 32 -101 263 -101 287 0 7 -12
28 -26 47 -14 19 -35 60 -46 91 -11 31 -25 66 -32 77 -7 11 -21 43 -30 72 -10
29 -28 68 -41 88 -14 19 -33 69 -44 109 -10 41 -28 88 -40 104 -11 17 -21 34
-21 39 0 5 -13 30 -30 56 -16 25 -35 73 -41 106 -8 38 -23 72 -41 93 -15 18
-33 46 -39 63 -7 16 -20 41 -29 55 -10 14 -25 49 -35 78 -9 29 -27 63 -40 75
-26 24 -45 66 -45 100 0 19 -61 117 -100 159 -9 10 -22 40 -29 66 -7 30 -26
64 -47 87 -19 21 -34 43 -34 50 0 8 -11 27 -25 43 -14 16 -31 53 -38 82 -9 33
-24 62 -39 75 -14 12 -40 51 -57 88 -17 36 -47 89 -67 119 -20 29 -42 72 -49
96 -7 23 -28 60 -47 81 -65 74 -88 106 -99 141 -6 19 -24 49 -39 65 -15 17
-34 47 -41 67 -7 21 -39 73 -71 115 -32 42 -62 91 -67 108 -5 18 -20 45 -34
61 -77 88 -96 113 -116 151 -11 23 -29 44 -39 47 -11 4 -34 39 -56 87 -21 44
-52 97 -70 117 -18 21 -39 49 -47 64 -8 14 -40 54 -71 87 -32 33 -60 73 -64
88 -4 15 -23 46 -43 68 -20 22 -50 66 -66 98 -27 55 -79 117 -97 117 -4 0 -8
6 -8 13 0 7 -32 46 -71 87 -40 41 -78 88 -85 105 -7 16 -33 53 -58 80 -25 28
-53 65 -62 83 -8 18 -26 40 -40 49 -14 9 -34 33 -44 53 -11 21 -49 68 -85 106
-35 37 -67 75 -70 84 -3 9 -17 23 -30 30 -14 8 -37 30 -52 49 -15 20 -49 59
-77 86 -28 28 -83 87 -123 130 -40 44 -95 105 -123 135 -28 30 -63 71 -78 90
-15 19 -40 46 -57 60 -65 55 -161 157 -175 185 -8 17 -28 44 -45 60 -16 17
-48 53 -70 80 -22 28 -44 52 -49 54 -9 4 -67 55 -121 108 -19 17 -52 43 -75
58 -22 14 -43 32 -46 40 -3 8 -36 40 -72 70 -37 31 -101 89 -142 129 -41 40
-88 82 -105 95 -16 12 -75 66 -130 119 -54 53 -124 119 -155 146 -30 27 -58
57 -62 67 -4 10 -25 27 -47 39 -23 11 -55 37 -73 56 -18 20 -58 53 -88 74 -30
21 -68 52 -84 69 -17 17 -38 31 -48 31 -10 0 -18 4 -18 8 0 5 -11 14 -25 20
-14 7 -44 29 -66 49 -22 21 -51 44 -64 53 -13 8 -49 41 -80 72 -31 31 -70 62
-88 69 -18 7 -38 21 -45 31 -8 10 -53 45 -100 77 -48 32 -92 68 -98 78 -7 11
-30 25 -52 31 -25 8 -61 33 -95 66 -30 30 -74 64 -97 76 -22 11 -43 27 -46 35
-3 7 -26 23 -51 35 -25 12 -52 27 -59 35 -7 7 -29 23 -48 34 -19 12 -41 33
-50 46 -9 14 -23 25 -31 25 -19 0 -105 42 -105 51 0 13 -121 99 -140 99 -9 0
-33 14 -51 30 -54 49 -134 100 -156 100 -12 0 -36 14 -54 32 -43 39 -89 68
-111 68 -9 0 -47 27 -85 60 -53 46 -78 61 -111 66 -30 4 -58 19 -88 45 -25 22
-49 39 -54 39 -5 0 -15 6 -22 13 -7 8 -37 22 -66 31 -28 10 -64 31 -79 47 -16
16 -33 29 -40 29 -26 0 -155 70 -198 108 -28 25 -59 42 -82 46 -21 3 -58 19
-83 36 -25 16 -61 35 -80 41 -19 7 -49 23 -66 36 -17 12 -37 23 -45 23 -8 0
-30 13 -50 29 -19 16 -62 38 -95 49 -69 23 -180 77 -209 102 -11 10 -38 23
-60 30 -22 6 -56 20 -75 31 -19 10 -66 34 -105 54 -38 20 -81 42 -95 50 -14 8
-34 15 -45 15 -30 0 -103 28 -133 50 -15 11 -54 29 -87 40 -95 33 -185 72
-185 81 0 14 -72 46 -117 52 -39 5 -134 45 -247 103 -27 14 -76 30 -109 34
-32 5 -87 23 -122 39 -35 17 -69 31 -75 31 -6 0 -35 11 -65 24 -29 14 -88 32
-130 41 -61 12 -84 22 -105 45 -26 28 -39 32 -145 45 -27 4 -63 13 -80 20 -16
7 -50 18 -75 26 -25 7 -77 28 -115 46 -39 17 -91 35 -115 38 -72 10 -181 35
-202 46 -11 6 -43 17 -72 24 -29 8 -69 23 -88 35 -25 14 -72 25 -157 35 -107
12 -126 17 -147 39 -19 18 -43 27 -97 36 -83 12 -153 28 -182 40 -11 5 -65 14
-120 20 -127 14 -169 25 -225 58 -40 23 -60 27 -175 33 -87 4 -152 13 -195 27
-73 23 -143 44 -240 72 -41 11 -133 23 -250 30 -109 7 -215 20 -258 31 -41 10
-121 23 -179 29 -58 6 -131 17 -162 26 -110 28 -329 44 -781 59 -113 4 -214
11 -225 16 -24 11 -130 37 -200 50 -61 11 -1232 19 -1505 10z m-3900 -5792
c132 -55 215 -126 316 -270 52 -75 54 -115 49 -1096 -4 -600 -9 -916 -16 -953
-18 -89 -60 -152 -173 -265 -62 -62 -80 -74 -141 -93 -119 -37 -329 -27 -421
21 -17 9 -64 49 -106 89 -62 60 -84 90 -119 163 l-44 90 -3 955 c-2 831 -1
961 13 1001 32 100 165 263 255 315 32 18 127 55 175 68 42 11 161 -3 215 -25z
m5448 21 c131 -25 298 -141 352 -247 14 -26 33 -58 42 -71 48 -65 48 -69 47
-1043 -1 -1012 3 -956 -69 -1094 -31 -61 -59 -96 -113 -146 -40 -36 -83 -72
-97 -79 -101 -54 -369 -52 -477 3 -33 17 -110 92 -156 152 -17 22 -34 42 -38
45 -14 11 -41 75 -55 128 -12 46 -15 214 -19 970 -2 503 0 939 5 969 15 93 58
169 141 252 37 36 93 81 102 81 5 0 21 8 35 18 27 19 119 57 157 65 36 8 92 7
143 -3z m5622 -32 c92 -41 123 -61 177 -117 60 -61 87 -99 113 -156 51 -111
50 -90 50 -1038 0 -985 0 -978 -65 -1112 -33 -68 -45 -82 -183 -201 -33 -29
-110 -53 -212 -66 -100 -12 -146 -7 -243 27 -55 19 -82 35 -113 68 -23 25 -45
46 -50 48 -31 14 -95 105 -122 176 l-31 80 -2 957 -1 957 34 82 c29 70 44 92
116 163 77 77 182 144 224 144 8 0 18 4 24 9 14 14 62 20 139 15 52 -2 90 -12
145 -36z m-11995 -1129 c16 -8 38 -27 49 -42 21 -28 21 -40 27 -595 5 -509 7
-573 23 -622 47 -143 117 -239 266 -367 65 -56 86 -67 170 -93 41 -12 88 -27
105 -33 50 -19 220 -12 320 13 117 29 160 50 223 108 28 26 64 58 80 72 34 30
108 127 146 191 14 25 36 86 48 135 21 86 22 109 23 610 1 394 5 529 14 552 7
17 30 42 50 57 l38 26 1957 0 c1848 0 1958 -1 1986 -18 62 -36 63 -48 64 -621
1 -363 4 -526 12 -547 7 -16 19 -57 29 -90 19 -71 45 -135 54 -135 4 0 22 -25
40 -55 45 -74 211 -225 271 -246 155 -56 296 -76 410 -58 60 9 169 46 215 71
11 6 30 17 43 24 65 34 252 229 252 263 0 5 18 47 40 92 l40 83 0 573 c0 630
-1 616 60 648 27 14 244 16 1993 16 1169 0 1974 -4 1988 -10 13 -5 31 -17 40
-27 38 -44 41 -78 38 -607 l-2 -513 37 -117 c24 -73 50 -134 70 -160 17 -23
39 -53 48 -67 27 -41 85 -98 128 -125 22 -14 40 -29 40 -34 0 -11 87 -53 167
-80 171 -57 298 -51 501 23 75 28 229 152 259 210 8 16 27 40 41 54 25 26 68
112 97 194 12 36 15 132 15 603 0 537 1 561 20 592 36 59 59 67 209 71 98 2
150 -1 186 -11 28 -8 77 -22 110 -31 86 -24 180 -70 237 -118 71 -61 148 -137
184 -183 44 -56 110 -185 125 -242 14 -58 29 -1438 16 -1518 -9 -54 -28 -82
-67 -97 -37 -14 -14406 -14 -14442 0 -15 6 -35 23 -44 37 -16 25 -17 81 -15
763 3 786 0 745 54 912 14 41 31 94 38 118 8 28 28 56 59 85 25 23 77 70 114
104 100 91 202 139 361 169 88 17 301 12 340 -7z m13479 -2629 c79 -10 103
-27 116 -86 6 -23 10 -1647 10 -3883 0 -3662 0 -3845 -17 -3879 -31 -61 -72
-74 -258 -82 -89 -4 -167 -10 -174 -14 -7 -5 -72 -10 -145 -12 -126 -3 -364
-15 -701 -34 -88 -6 -221 -13 -295 -18 -74 -4 -140 -10 -146 -14 -7 -5 -92
-13 -190 -19 -99 -5 -249 -14 -334 -19 -85 -5 -247 -15 -360 -22 -113 -7 -254
-12 -315 -10 -220 5 -273 -44 -247 -233 14 -110 2 -169 -41 -191 -40 -21 -104
-13 -171 23 -101 52 -166 83 -176 83 -5 0 -48 20 -96 45 -47 25 -95 45 -107
45 -12 0 -71 24 -132 53 -60 29 -137 63 -170 76 -33 12 -96 40 -140 61 -44 20
-91 41 -105 45 -14 4 -61 24 -106 45 -85 41 -159 72 -234 97 -25 9 -75 31
-112 49 -38 19 -89 41 -115 50 -27 9 -91 36 -143 61 -51 25 -117 52 -145 60
-72 22 -142 60 -155 84 -15 27 -7 56 33 120 l32 52 0 206 c0 113 -3 331 -7
484 -5 171 -3 355 4 480 6 111 10 220 9 242 -1 47 -24 82 -72 108 -30 17 -44
18 -114 11 -88 -10 -1114 -11 -1264 -2 -67 4 -102 2 -125 -7 -63 -27 -61 -6
-57 -480 3 -477 3 -478 -59 -510 -39 -20 -44 -20 -109 13 -31 16 -104 45 -162
65 -166 58 -234 101 -276 175 -16 27 -18 456 -3 546 13 80 -8 156 -52 187 -27
20 -37 21 -101 13 -91 -10 -1241 -10 -1322 1 -50 6 -66 4 -94 -12 -76 -42 -84
-76 -67 -278 7 -81 5 -93 -13 -123 -12 -18 -32 -37 -46 -42 -14 -5 -127 -8
-256 -7 l-231 3 -28 31 c-35 39 -46 102 -31 173 31 143 5 222 -82 249 -40 12
-61 13 -136 2 -104 -14 -1073 -14 -1186 1 -100 13 -162 2 -198 -34 l-30 -29 6
-109 c8 -128 -9 -200 -52 -228 -32 -22 -137 -21 -355 1 -147 14 -160 18 -186
42 -38 37 -54 97 -41 155 6 25 11 65 11 89 0 37 -5 49 -40 83 l-40 40 -102 -8
c-128 -11 -1201 -10 -1283 0 -52 7 -67 5 -107 -14 -59 -28 -73 -62 -64 -163
19 -222 19 -246 2 -272 -13 -20 -25 -25 -56 -25 -72 0 -101 19 -161 106 -18
27 -84 101 -146 165 -63 63 -121 126 -131 140 -46 66 -117 142 -290 313 -73
72 -140 143 -148 159 -13 24 -15 365 -14 2725 0 2609 0 2698 18 2722 11 14 34
30 53 37 26 9 1609 12 6994 13 6815 0 6961 1 7025 20 73 21 235 26 354 10z
m-15034 -5720 c19 -10 36 -27 156 -160 32 -36 66 -69 74 -74 15 -10 53 -47 81
-82 9 -10 29 -31 45 -45 16 -14 124 -122 240 -240 116 -118 258 -260 315 -316
57 -56 116 -114 131 -130 15 -15 109 -107 209 -203 209 -200 713 -696 797
-784 32 -32 86 -86 121 -120 35 -33 98 -96 140 -139 42 -43 132 -133 200 -200
68 -67 148 -147 177 -177 29 -30 129 -131 223 -225 94 -93 239 -239 323 -324
84 -85 164 -163 177 -175 13 -11 65 -63 115 -114 50 -52 121 -118 158 -148 37
-31 76 -71 87 -90 11 -19 25 -40 31 -47 41 -49 90 -118 104 -144 8 -17 21 -37
28 -45 7 -7 29 -37 49 -66 40 -57 115 -148 164 -197 17 -16 49 -56 70 -89 31
-46 40 -68 40 -102 0 -69 -17 -79 -138 -79 -61 0 -118 6 -142 14 -29 11 -101
76 -295 269 -140 140 -273 268 -295 286 -21 17 -92 83 -156 146 -64 63 -138
135 -165 160 -27 25 -164 161 -304 303 -140 142 -271 273 -290 290 -19 18 -54
53 -76 77 -23 25 -133 135 -245 246 -112 111 -220 219 -240 240 -20 21 -45 46
-55 55 -11 9 -116 114 -234 233 -283 284 -320 320 -485 473 -151 139 -990 978
-1040 1039 -26 31 -37 37 -82 41 l-52 5 -498 -498 c-274 -275 -505 -509 -514
-522 -9 -13 -89 -96 -178 -185 -88 -89 -165 -166 -171 -172 -5 -5 -339 -342
-742 -747 -403 -405 -783 -788 -845 -851 -157 -161 -159 -185 -22 -307 40 -36
91 -85 114 -110 22 -24 87 -91 145 -147 58 -56 108 -106 112 -110 34 -36 1052
-1053 1070 -1068 13 -12 32 -32 43 -46 11 -14 35 -36 54 -49 25 -17 554 -534
643 -628 4 -4 40 -43 80 -87 172 -188 543 -562 709 -715 51 -47 237 -228 413
-402 176 -175 323 -318 328 -318 5 0 477 -468 1049 -1040 572 -572 1045 -1040
1051 -1040 6 0 213 -201 461 -448 247 -246 457 -454 466 -463 9 -9 37 -39 63
-67 26 -28 69 -68 95 -88 94 -72 202 -175 592 -565 218 -218 416 -411 441
-430 25 -19 140 -130 256 -247 140 -141 217 -212 231 -212 37 0 73 32 359 321
179 182 275 278 445 448 25 25 59 58 299 300 58 59 121 126 141 151 20 25 181
189 358 365 177 176 330 329 341 340 39 40 238 240 249 250 6 6 132 132 280
280 147 149 301 302 341 340 40 39 93 94 118 123 25 29 58 60 74 68 39 20 118
129 118 163 0 31 -49 102 -100 146 -19 16 -78 74 -130 128 -52 55 -126 123
-165 152 -38 30 -187 169 -330 310 -143 141 -277 268 -298 281 -144 94 -219
226 -152 270 29 19 136 21 181 3 16 -6 86 -14 155 -18 123 -8 127 -8 170 -42
24 -18 152 -142 284 -274 247 -247 372 -366 466 -445 30 -25 118 -108 197
-185 185 -181 182 -178 182 -185 0 -4 25 -24 55 -44 59 -39 89 -78 105 -138
14 -51 -5 -93 -65 -143 -58 -47 -450 -440 -574 -574 -47 -52 -527 -536 -1066
-1076 -539 -541 -1027 -1033 -1085 -1095 -58 -61 -235 -243 -395 -404 -159
-161 -319 -326 -355 -367 -79 -91 -76 -89 -123 -89 -51 0 -80 18 -152 97 -105
113 -818 825 -901 898 -89 79 -250 235 -417 404 -61 63 -286 289 -499 502
-214 214 -388 393 -388 400 0 6 -24 35 -52 64 -29 29 -101 102 -160 161 -59
60 -118 119 -130 130 -13 12 -88 88 -167 168 -80 81 -158 157 -175 169 -23 16
-641 622 -754 739 -51 52 -739 742 -902 903 -111 110 -217 216 -235 236 -18
20 -41 42 -51 47 -10 6 -131 120 -268 254 -247 241 -409 403 -958 955 -157
158 -395 394 -528 523 -635 618 -925 906 -1690 1675 -113 114 -486 478 -584
570 -6 6 -26 22 -45 35 -52 36 -151 139 -162 168 -5 13 -7 34 -3 46 4 11 154
167 333 346 179 179 338 342 353 361 18 25 1109 1119 1314 1319 9 8 101 103
204 210 104 107 195 201 202 208 315 311 543 540 618 620 51 56 214 224 361
372 238 241 270 270 299 270 17 0 40 -5 50 -10z m3150 -1151 c30 -6 249 -15
485 -20 406 -9 662 -15 1645 -38 1060 -26 1034 -24 1206 -85 23 -8 77 -19 120
-25 109 -16 172 -31 219 -51 22 -10 81 -28 130 -40 156 -37 310 -80 366 -101
107 -42 163 -59 188 -59 31 -1 114 -28 196 -65 33 -14 101 -40 150 -56 50 -17
113 -44 142 -60 28 -16 87 -42 130 -58 108 -40 124 -47 158 -71 17 -11 55 -27
85 -36 64 -18 62 -17 200 -81 58 -27 125 -56 150 -63 25 -8 61 -23 80 -34 69
-39 126 -64 160 -71 19 -4 100 -38 180 -75 80 -37 163 -73 185 -80 22 -7 67
-27 100 -44 33 -18 87 -42 120 -54 60 -20 254 -103 287 -122 10 -6 22 -10 28
-10 5 0 35 -12 67 -26 80 -37 193 -84 226 -94 15 -5 57 -24 95 -43 37 -20 96
-47 132 -62 36 -15 81 -34 100 -42 19 -8 58 -26 86 -39 29 -13 76 -32 105 -40
30 -9 92 -36 139 -59 47 -24 121 -55 165 -70 44 -14 107 -42 141 -60 35 -19
91 -44 126 -56 66 -23 120 -45 203 -84 28 -13 76 -31 107 -40 32 -9 68 -25 80
-35 22 -17 110 -60 123 -60 4 0 21 -6 38 -14 18 -7 61 -25 97 -39 100 -39 213
-102 235 -131 19 -26 19 -51 17 -2051 -1 -1410 -5 -2031 -12 -2045 -6 -11 -25
-27 -43 -36 -27 -15 -53 -16 -182 -10 -136 6 -463 33 -670 56 -249 27 -374 38
-745 60 -248 15 -415 28 -490 39 -36 5 -132 12 -215 16 -82 3 -171 10 -197 15
-26 6 -110 14 -185 20 -76 5 -214 17 -308 25 -93 8 -314 24 -490 36 -176 11
-347 25 -380 30 -135 24 -333 42 -645 58 -221 11 -263 14 -500 36 -85 8 -220
20 -300 26 -80 6 -190 15 -245 20 -55 5 -158 13 -230 19 -71 5 -177 14 -235
20 -112 12 -324 26 -610 40 -96 5 -265 14 -375 19 -110 6 -227 14 -260 20 -33
5 -94 7 -135 4 -46 -3 -114 1 -176 11 -56 9 -147 16 -202 16 -56 0 -179 5
-274 10 -95 6 -294 15 -443 20 -148 6 -301 14 -340 19 -38 5 -108 7 -155 4
-61 -4 -119 1 -207 16 -89 15 -143 19 -200 14 -48 -3 -107 -1 -149 7 -38 7
-143 14 -234 16 -91 1 -194 8 -230 13 -36 6 -139 11 -230 11 -91 0 -246 7
-345 16 -122 11 -226 14 -321 10 -81 -3 -164 -2 -194 4 -29 6 -114 15 -189 20
-78 6 -165 19 -201 30 -36 11 -81 20 -100 20 -31 0 -124 16 -235 39 -22 4 -71
25 -110 46 -38 21 -103 56 -144 77 -68 36 -128 73 -141 88 -3 3 -23 18 -45 35
-22 16 -60 52 -85 80 -25 27 -79 86 -121 130 -98 103 -86 80 -168 339 -25 79
-32 211 -13 266 6 19 28 82 47 140 49 144 103 222 250 360 119 113 337 206
535 229 96 12 134 19 270 48 123 26 179 29 540 27 507 -3 707 -11 784 -28 85
-20 142 -20 231 -1 57 13 153 15 525 15 250 0 489 4 530 9 42 6 507 13 1034
16 1032 6 986 3 986 57 0 30 -49 99 -123 172 -32 32 -74 84 -93 116 -19 32
-51 77 -72 99 -86 92 -172 196 -172 207 0 5 -16 31 -35 58 -19 27 -51 81 -70
120 -19 39 -53 94 -75 121 -22 28 -49 68 -61 89 -11 21 -30 48 -41 60 -27 28
-78 103 -78 113 0 5 -24 38 -54 73 -30 35 -64 83 -75 105 -11 23 -34 57 -51
76 -17 19 -47 59 -68 89 -27 39 -54 64 -93 85 -78 43 -120 78 -313 268 -93 92
-174 167 -179 167 -5 0 -75 65 -155 145 -81 80 -151 149 -155 153 -4 4 -140
140 -301 302 -162 162 -307 307 -322 321 -16 15 -72 70 -124 123 -52 54 -109
106 -126 117 -39 24 -59 53 -73 105 -18 66 0 106 70 160 33 25 67 57 76 70 9
14 37 37 62 51 25 14 57 36 71 48 14 13 39 29 55 38 54 27 227 81 320 101 38
7 180 4 235 -5z m-2644 -645 c18 -9 55 -41 81 -72 38 -44 255 -263 586 -589
114 -113 280 -289 300 -317 25 -38 195 -225 231 -255 11 -9 47 -43 81 -76 33
-33 96 -91 139 -130 44 -38 292 -281 551 -540 260 -258 514 -508 565 -555 80
-75 92 -91 96 -125 4 -27 1 -47 -9 -60 -15 -19 -29 -20 -399 -22 -975 -6
-1478 -3 -1516 10 -27 10 -52 55 -52 94 0 15 7 60 15 98 18 84 19 175 4 264
-14 77 -89 211 -154 273 -22 21 -50 48 -63 61 -25 24 -120 82 -197 120 -152
75 -321 80 -483 14 -97 -40 -148 -75 -244 -167 -72 -69 -96 -100 -127 -165
-61 -125 -82 -202 -83 -302 -1 -102 11 -154 54 -226 62 -104 44 -189 -49 -222
-26 -10 -80 -33 -120 -52 -40 -18 -77 -33 -82 -33 -5 0 -33 -21 -63 -48 -29
-26 -71 -61 -93 -77 -64 -46 -176 -165 -230 -244 -64 -93 -96 -121 -142 -121
-36 0 -52 14 -224 198 -28 30 -110 111 -147 146 -13 11 -40 39 -60 61 -20 22
-52 53 -69 70 -18 16 -72 70 -120 119 -49 50 -126 126 -172 170 -47 45 -103
99 -125 122 -23 23 -62 58 -88 78 -76 61 -77 129 -2 209 63 68 87 118 119 247
16 63 20 316 6 352 -42 105 -57 137 -85 171 -47 59 -44 107 14 183 25 32 54
66 65 74 29 21 678 674 755 759 36 40 153 162 260 272 187 190 197 199 234
199 32 0 48 -9 96 -50 32 -27 62 -50 67 -50 6 0 25 -8 44 -17 51 -27 370 -26
449 0 77 26 148 63 195 101 82 67 129 79 191 50z m16128 -823 c8 -7 22 -34 31
-60 14 -42 15 -352 15 -3048 0 -1849 -3 -3010 -9 -3026 -5 -13 -22 -34 -37
-46 -30 -23 -91 -27 -179 -10 -97 18 -502 37 -655 29 -70 -3 -286 8 -952 48
-86 6 -162 13 -168 17 -6 4 -88 11 -183 16 -95 5 -255 14 -357 19 -102 6 -237
12 -300 14 -63 2 -162 9 -220 15 -58 5 -197 13 -310 16 -113 4 -255 13 -315
20 -62 8 -144 11 -187 8 -81 -6 -182 8 -230 33 -15 8 -37 32 -48 54 -21 40
-21 43 -20 2791 0 2956 -3 2776 49 2823 18 16 45 20 178 27 226 12 429 27 496
38 31 6 79 7 105 4 27 -3 109 2 182 12 73 9 147 14 164 11 17 -3 67 -1 111 5
84 11 288 25 570 39 94 4 193 13 220 19 107 23 175 31 315 36 80 3 183 10 230
15 47 5 173 14 280 20 107 6 260 15 340 20 80 6 179 12 220 14 173 9 418 28
465 36 66 11 181 6 199 -9z m-20496 -1288 c15 -10 99 -90 187 -178 88 -88 234
-230 324 -315 89 -85 328 -321 529 -523 202 -203 454 -455 561 -560 106 -106
334 -332 505 -503 171 -170 383 -377 471 -460 88 -82 556 -545 1040 -1029 484
-484 916 -912 959 -950 60 -53 380 -362 451 -435 81 -84 1484 -1483 1547
-1543 47 -45 179 -174 292 -287 113 -113 211 -209 218 -215 6 -5 195 -194 419
-420 224 -225 415 -417 424 -425 10 -8 181 -177 382 -375 200 -198 389 -382
420 -410 110 -97 377 -374 404 -419 11 -18 19 -50 19 -74 0 -40 -5 -49 -59
-103 -71 -70 -93 -74 -168 -26 -57 36 -203 187 -247 257 -29 46 -1038 1058
-1104 1108 -20 15 -466 457 -991 982 -526 525 -985 980 -1021 1010 -51 43
-301 287 -713 697 -6 7 -86 86 -176 175 -90 90 -171 171 -180 180 -35 37 -363
367 -427 430 -38 37 -115 113 -170 170 -56 57 -110 110 -120 119 -11 9 -67 65
-125 125 -58 60 -128 127 -155 149 -35 28 -1181 1164 -1577 1562 -327 330
-440 442 -508 503 -62 56 -1251 1233 -1314 1301 -53 56 -154 156 -215 211
l-75 67 1 55 c1 117 109 201 192 149z m5483 -3495 c21 -6 46 -18 56 -27 10 -9
45 -37 79 -63 33 -26 68 -58 77 -72 9 -14 38 -40 64 -57 27 -18 57 -42 68 -52
28 -26 102 -77 112 -77 18 0 109 -48 123 -65 29 -35 162 -81 305 -104 39 -7
95 -17 126 -22 73 -14 301 -6 409 15 179 35 334 84 395 126 25 17 60 36 78 42
41 14 92 50 192 133 117 98 113 97 273 91 305 -10 541 -24 602 -36 50 -9 84
-9 146 1 48 7 113 9 160 5 44 -4 162 -11 264 -16 236 -11 460 -28 530 -40 30
-5 107 -12 170 -15 266 -14 474 -37 529 -57 78 -29 158 -83 176 -118 8 -16 21
-33 29 -37 8 -4 68 -60 133 -124 65 -63 135 -127 155 -140 38 -26 113 -97 273
-258 49 -50 106 -103 126 -118 47 -35 80 -87 86 -134 8 -54 -1 -78 -46 -129
-22 -25 -58 -81 -80 -125 -52 -106 -69 -235 -50 -393 11 -98 14 -107 49 -147
69 -80 85 -114 85 -184 0 -63 0 -63 -48 -105 -72 -62 -439 -428 -637 -636 -96
-101 -254 -263 -350 -361 -96 -98 -188 -194 -205 -212 -16 -18 -43 -43 -59
-55 -52 -39 -149 -25 -216 33 -26 22 -103 57 -155 71 -104 28 -319 13 -375
-26 -14 -9 -42 -23 -62 -31 -21 -7 -67 -35 -104 -63 -59 -44 -72 -50 -114 -49
-58 1 -90 22 -159 108 -45 56 -282 287 -356 348 -16 14 -507 501 -1090 1084
-583 582 -1082 1076 -1110 1098 -27 22 -198 188 -380 370 -181 182 -346 344
-365 359 -66 53 -180 187 -180 211 0 13 11 33 26 44 23 18 41 21 117 21 49 0
107 -5 128 -12z"/>
<path d="M16858 21615 c-3 -3 -322 -5 -709 -5 -775 0 -731 4 -764 -61 -14 -26
-16 -125 -16 -772 l0 -742 26 -22 c14 -13 34 -23 43 -24 9 0 334 -2 722 -4
388 -2 723 -4 744 -4 50 -2 84 21 103 67 13 31 13 48 3 110 -8 52 -11 260 -9
725 3 672 2 675 -35 713 -13 12 -99 28 -108 19z"/>
<path d="M21338 21615 c-3 -3 -319 -5 -702 -5 -765 0 -732 2 -759 -59 -8 -18
-12 -231 -15 -726 -1 -385 -3 -715 -4 -732 -1 -18 4 -43 11 -56 28 -52 7 -50
721 -48 372 1 692 -3 727 -8 42 -6 74 -6 98 1 71 23 67 -37 67 803 l0 756 -26
33 c-26 35 -99 60 -118 41z"/>
<path d="M17643 21584 c-13 -13 -23 -33 -24 -46 0 -13 0 -358 0 -767 -1 -728
0 -744 19 -763 19 -20 36 -20 786 -20 695 -1 768 1 791 16 14 9 25 20 25 24 1
4 1 349 2 767 l0 759 -33 28 -33 28 -755 -1 -755 -2 -23 -23z"/>
<path d="M22128 21583 l-23 -25 -5 -741 c-3 -408 -2 -756 3 -773 4 -18 14 -37
22 -44 12 -10 183 -13 792 -12 753 1 777 2 796 20 19 19 19 42 19 768 0 412
-3 761 -7 776 -16 61 18 59 -814 57 l-759 -1 -24 -25z"/>
<path d="M10940 19355 c-16 -5 -34 -15 -40 -21 -16 -16 -17 -1517 -1 -1556 5
-15 20 -32 31 -38 31 -17 1526 -16 1545 0 44 36 44 32 45 820 l0 751 -26 24
c-15 14 -32 25 -38 26 -6 0 -343 2 -749 2 -469 1 -748 -2 -767 -8z"/>
<path d="M13181 19356 c-42 -18 -42 -26 -41 -809 1 -776 1 -788 40 -812 6 -3
354 -6 774 -6 829 -1 799 -3 812 55 11 53 7 1522 -5 1544 -6 12 -21 24 -33 28
-32 10 -1524 11 -1547 0z"/>
<path d="M15415 19352 c-41 -21 -58 -66 -51 -136 4 -34 8 -370 9 -748 l2 -688
27 -26 27 -27 673 2 c387 1 696 -3 728 -8 72 -12 135 3 158 37 15 22 16 89 14
711 -2 425 1 705 7 736 7 35 6 62 -1 89 -22 73 27 69 -814 70 -594 1 -760 -2
-779 -12z"/>
<path d="M17649 19348 c-16 -10 -29 -23 -29 -30 -5 -129 0 -1532 5 -1547 3
-11 16 -26 27 -32 15 -8 236 -11 762 -10 408 0 749 1 758 1 9 0 29 10 44 23
l26 23 0 765 c-1 420 -1 770 -2 776 0 7 -11 20 -25 29 -23 15 -99 16 -781 18
-702 1 -759 0 -785 -16z"/>
<path d="M19912 19350 c-47 -29 -55 -46 -52 -113 1 -34 2 -368 2 -742 -1 -729
-1 -729 48 -755 22 -12 1511 -17 1529 -5 6 3 18 20 27 37 14 27 16 118 15 786
l0 755 -24 24 -24 24 -747 3 c-681 2 -749 1 -774 -14z"/>
<path d="M22127 19340 l-28 -25 0 -741 c0 -710 1 -743 20 -786 10 -25 27 -48
38 -52 10 -4 356 -7 770 -7 805 0 785 -1 799 51 12 44 7 1526 -5 1548 -6 12
-21 24 -33 28 -13 4 -363 8 -778 8 l-755 1 -28 -25z"/>
<path d="M21765 17612 c-64 -22 -193 -104 -248 -157 -63 -60 -177 -204 -177
-222 0 -18 -49 -60 -107 -91 l-58 -30 -505 -1 c-301 0 -545 5 -605 11 -129 14
-151 5 -196 -85 -32 -63 -65 -107 -81 -107 -21 0 -162 -72 -198 -100 -40 -31
-120 -144 -140 -194 -14 -39 -12 -143 4 -196 18 -55 83 -178 109 -205 11 -11
46 -60 79 -110 33 -49 72 -103 87 -120 40 -42 140 -194 147 -221 3 -13 1 -46
-5 -74 -18 -84 -14 -141 12 -171 30 -36 86 -50 149 -39 60 12 127 -1 183 -35
146 -88 238 -114 416 -117 150 -3 190 7 314 82 114 68 133 74 230 74 50 0 122
-4 160 -8 61 -6 74 -5 103 13 18 12 37 32 42 46 6 17 7 103 1 239 -5 117 -6
225 -3 241 7 40 100 181 151 230 23 22 50 58 61 80 11 22 38 60 60 83 22 24
40 47 40 52 0 4 20 32 44 62 24 29 58 82 75 117 42 81 72 112 120 118 33 5 41
1 61 -23 21 -28 22 -34 16 -154 -3 -69 -6 -331 -7 -582 0 -427 1 -459 18 -483
29 -40 75 -49 204 -39 63 5 382 7 709 4 327 -3 611 -2 630 2 20 4 43 18 54 31
18 24 18 57 18 774 -1 411 -1 751 -1 754 -2 17 -40 47 -73 58 -28 9 -60 10
-134 1 -59 -6 -301 -10 -613 -9 -284 0 -520 0 -526 -1 -29 -6 -63 3 -90 24
-30 24 -30 26 -36 143 -3 81 -10 128 -22 149 -20 39 -76 95 -113 114 -16 8
-49 28 -74 45 -43 28 -51 30 -155 32 -60 1 -119 -1 -130 -5z m188 -262 c38
-30 49 -80 31 -139 -7 -26 -23 -59 -35 -72 -11 -13 -30 -35 -42 -49 -12 -14
-28 -37 -35 -51 -12 -23 -104 -151 -127 -175 -5 -6 -21 -30 -35 -54 -14 -24
-35 -54 -47 -67 -13 -13 -38 -48 -57 -78 -19 -30 -50 -71 -69 -92 -19 -21 -45
-54 -58 -74 -13 -20 -50 -67 -81 -105 -32 -37 -58 -73 -58 -79 0 -6 -14 -24
-31 -41 -17 -16 -49 -55 -70 -86 -21 -31 -56 -76 -76 -101 -21 -25 -58 -72
-82 -106 -24 -34 -47 -61 -51 -61 -5 0 -20 -20 -35 -45 -39 -67 -181 -230
-229 -262 -38 -26 -48 -28 -141 -28 -86 1 -106 4 -140 24 -74 42 -110 65 -115
71 -3 4 -26 21 -53 39 -26 18 -55 44 -64 59 -10 15 -20 29 -23 32 -4 3 -49 61
-101 130 -52 69 -101 131 -110 137 -9 7 -28 32 -42 55 -14 24 -34 50 -45 59
-10 9 -48 53 -82 98 -35 44 -67 81 -71 81 -4 0 -24 26 -43 57 -59 94 -46 175
33 210 46 20 169 21 241 3 44 -12 66 -27 115 -74 61 -60 129 -124 270 -251 42
-38 101 -100 131 -137 52 -65 57 -68 98 -68 41 0 47 4 123 83 45 45 105 111
134 147 29 36 122 134 206 217 83 84 180 186 214 225 34 40 71 79 81 86 10 7
36 40 58 72 22 32 48 65 58 72 10 7 40 45 67 84 104 148 194 244 245 261 58
18 114 15 143 -7z"/>
<path d="M14222 9295 c-66 -15 -188 -76 -262 -129 -54 -38 -155 -161 -194
-235 -21 -38 -49 -132 -73 -245 -14 -66 -14 -73 7 -155 35 -131 67 -221 88
-245 10 -11 29 -41 41 -66 30 -59 42 -72 128 -137 123 -93 269 -129 456 -113
137 12 246 49 330 112 166 123 245 242 287 428 34 147 17 307 -47 438 -31 64
-192 230 -249 256 -21 10 -61 32 -87 48 -26 17 -76 37 -110 44 -78 17 -245 16
-315 -1z"/>
</g>
</svg>
